<svg width="71" height="23" viewBox="0 0 71 23" fill="none" xmlns="http://www.w3.org/2000/svg">
<path d="M7.20344 18.288C4.96344 18.288 3.30744 17.528 2.23544 16.008C1.17944 14.488 0.651437 12.36 0.651437 9.624C0.651437 6.888 1.17944 4.76 2.23544 3.24C3.30744 1.72 4.96344 0.959999 7.20344 0.959999C9.44344 0.959999 11.0914 1.72 12.1474 3.24C13.2194 4.76 13.7554 6.888 13.7554 9.624C13.7554 12.36 13.2194 14.488 12.1474 16.008C11.0914 17.528 9.44344 18.288 7.20344 18.288ZM7.20344 15.456C8.27544 15.456 9.01944 15.08 9.43544 14.328C9.86744 13.576 10.0834 12.528 10.0834 11.184V8.064C10.0834 6.72 9.86744 5.672 9.43544 4.92C9.01944 4.168 8.27544 3.792 7.20344 3.792C6.13144 3.792 5.37944 4.168 4.94744 4.92C4.53144 5.672 4.32344 6.72 4.32344 8.064V11.184C4.32344 12.528 4.53144 13.576 4.94744 14.328C5.37944 15.08 6.13144 15.456 7.20344 15.456ZM7.20344 11.04C6.64344 11.04 6.25144 10.928 6.02744 10.704C5.81944 10.48 5.71544 10.208 5.71544 9.888V9.36C5.71544 9.04 5.81944 8.768 6.02744 8.544C6.25144 8.32 6.64344 8.208 7.20344 8.208C7.76344 8.208 8.14744 8.32 8.35544 8.544C8.57944 8.768 8.69144 9.04 8.69144 9.36V9.888C8.69144 10.208 8.57944 10.48 8.35544 10.704C8.14744 10.928 7.76344 11.04 7.20344 11.04ZM20.7061 7.872C21.6341 7.872 22.3061 7.696 22.7221 7.344C23.1541 6.992 23.3701 6.56 23.3701 6.048V5.88C23.3701 5.272 23.1621 4.792 22.7461 4.44C22.3461 4.072 21.7701 3.888 21.0181 3.888C20.3301 3.888 19.6821 4.064 19.0741 4.416C18.4821 4.752 17.9781 5.24 17.5621 5.88L15.2821 3.768C15.6021 3.352 15.9541 2.976 16.3381 2.64C16.7221 2.288 17.1461 1.992 17.6101 1.752C18.0741 1.496 18.5941 1.304 19.1701 1.176C19.7621 1.032 20.4261 0.959999 21.1621 0.959999C22.0741 0.959999 22.8981 1.064 23.6341 1.272C24.3701 1.48 24.9941 1.784 25.5061 2.184C26.0341 2.568 26.4421 3.032 26.7301 3.576C27.0181 4.12 27.1621 4.728 27.1621 5.4C27.1621 5.928 27.0741 6.408 26.8981 6.84C26.7221 7.272 26.4821 7.648 26.1781 7.968C25.8901 8.288 25.5461 8.552 25.1461 8.76C24.7621 8.952 24.3461 9.088 23.8981 9.168V9.312C24.9221 9.488 25.7701 9.92 26.4421 10.608C27.1301 11.28 27.4741 12.192 27.4741 13.344C27.4741 14.096 27.3141 14.776 26.9941 15.384C26.6901 15.992 26.2501 16.512 25.6741 16.944C25.1141 17.376 24.4261 17.712 23.6101 17.952C22.8101 18.176 21.9141 18.288 20.9221 18.288C20.0741 18.288 19.3221 18.2 18.6661 18.024C18.0261 17.848 17.4581 17.616 16.9621 17.328C16.4661 17.024 16.0341 16.68 15.6661 16.296C15.3141 15.896 15.0021 15.488 14.7301 15.072L17.3941 13.008C17.7621 13.696 18.2181 14.264 18.7621 14.712C19.3221 15.144 20.0661 15.36 20.9941 15.36C21.8581 15.36 22.5221 15.16 22.9861 14.76C23.4501 14.36 23.6821 13.808 23.6821 13.104V12.936C23.6821 12.248 23.4181 11.736 22.8901 11.4C22.3621 11.048 21.6261 10.872 20.6821 10.872H19.1221V7.872H20.7061ZM29.8647 0.24H33.4167V7.872H33.5607C33.7047 7.52 33.8807 7.192 34.0887 6.888C34.2967 6.584 34.5447 6.32 34.8327 6.096C35.1367 5.856 35.4807 5.672 35.8647 5.544C36.2647 5.4 36.7127 5.328 37.2087 5.328C37.8007 5.328 38.3447 5.432 38.8407 5.64C39.3367 5.832 39.7607 6.128 40.1127 6.528C40.4647 6.928 40.7367 7.416 40.9287 7.992C41.1367 8.568 41.2407 9.232 41.2407 9.984V18H37.6887V10.464C37.6887 8.864 36.9927 8.064 35.6007 8.064C35.3287 8.064 35.0567 8.104 34.7847 8.184C34.5287 8.248 34.2967 8.36 34.0887 8.52C33.8807 8.664 33.7127 8.848 33.5847 9.072C33.4727 9.296 33.4167 9.56 33.4167 9.864V18H29.8647V0.24ZM51.8873 15.744H51.7193C51.3993 16.496 50.9513 17.112 50.3753 17.592C49.8153 18.056 49.0393 18.288 48.0473 18.288C47.3593 18.288 46.7273 18.16 46.1513 17.904C45.5913 17.648 45.1033 17.256 44.6873 16.728C44.2873 16.2 43.9673 15.528 43.7273 14.712C43.5033 13.896 43.3913 12.928 43.3913 11.808C43.3913 10.688 43.5033 9.72 43.7273 8.904C43.9673 8.088 44.2873 7.416 44.6873 6.888C45.1033 6.36 45.5913 5.968 46.1513 5.712C46.7273 5.456 47.3593 5.328 48.0473 5.328C48.5433 5.328 48.9833 5.392 49.3673 5.52C49.7513 5.648 50.0873 5.824 50.3753 6.048C50.6793 6.272 50.9353 6.544 51.1433 6.864C51.3673 7.168 51.5593 7.504 51.7193 7.872H51.8873V0.24H55.4393V18H51.8873V15.744ZM49.5833 15.528C50.2073 15.528 50.7433 15.376 51.1913 15.072C51.6553 14.768 51.8873 14.288 51.8873 13.632V9.984C51.8873 9.328 51.6553 8.848 51.1913 8.544C50.7433 8.24 50.2073 8.088 49.5833 8.088C48.7833 8.088 48.1673 8.336 47.7353 8.832C47.3033 9.312 47.0873 9.984 47.0873 10.848V12.768C47.0873 13.632 47.3033 14.312 47.7353 14.808C48.1673 15.288 48.7833 15.528 49.5833 15.528ZM66.9259 5.616H70.5499L64.7179 19.992C64.3499 20.904 63.8619 21.6 63.2539 22.08C62.6459 22.56 61.8139 22.8 60.7579 22.8H58.3099V20.04H61.2859L62.0539 17.928L57.0619 5.616H60.8779L62.6779 10.824L63.8059 14.424H63.9979L65.0779 10.824L66.9259 5.616Z" 
fill="black"/>
</svg>
