<svg width="1021" height="1021" viewBox="0 0 1021 1021" fill="none" xmlns="http://www.w3.org/2000/svg">
<g clip-path="url(#clip0_85_5)">
<path d="M510.049 1021C791.741 1021 1020.1 792.643 1020.1 510.951C1020.1 229.259 791.741 0.901978 510.049 0.901978C228.357 0.901978 0 229.259 0 510.951C0 792.643 228.357 1021 510.049 1021Z" fill="#4C6EEA"/>
<mask id="mask0_85_5" style="mask-type:alpha" maskUnits="userSpaceOnUse" x="0" y="0" width="1021" height="1021">
<path d="M510.049 1021C791.741 1021 1020.1 792.643 1020.1 510.951C1020.1 229.259 791.741 0.901978 510.049 0.901978C228.357 0.901978 0 229.259 0 510.951C0 792.643 228.357 1021 510.049 1021Z" fill="#D9D9D9"/>
</mask>
<g mask="url(#mask0_85_5)">
<path d="M438.059 518.792C533.227 350.57 523.684 -36.8828 472.381 -156.911L618.459 -131.116L472.381 584.475L448.225 568.592C432.03 557.944 428.515 535.662 438.059 518.792Z" fill="#CDFAC1"/>
<path d="M594.94 452.987C504.457 624.037 519.083 1043.84 570.733 1164.68H404.307L557.934 408.809L581.187 416.16C596.2 420.906 602.303 439.069 594.94 452.987Z" fill="#CDFAC1"/>
<path d="M879.871 597.26V597.257C867.671 760.146 648.075 845.723 648.075 855.544C637.838 906.111 795.051 810.306 827.41 760.146C879.869 678.829 879.87 636.525 879.871 597.26Z" fill="#CDFAC1"/>
<path d="M198.818 256.206C142.689 335.037 149.767 344.28 163.525 382.316C191.009 267.313 381.884 178.931 382.334 169.12C394.876 119.075 233.44 207.58 198.818 256.206Z" fill="#CDFAC1"/>
<path d="M1306.97 -105.012V-105.018C1283.01 214.776 851.889 382.787 851.889 402.068C831.789 501.345 1140.44 313.254 1203.97 214.776C1306.96 55.128 1306.96 -27.9253 1306.97 -105.012Z" fill="#CDFAC1"/>
<path d="M-23.7312 1284.06L-23.7284 1284.07C-149.305 988.99 156.522 641.763 147.668 624.635C119.933 527.215 -67.8766 836.038 -79.0893 952.692C-97.267 1141.81 -59.1292 1215.59 -23.7312 1284.06Z" fill="#CDFAC1"/>
</g>
</g>
<defs>
<clipPath id="clip0_85_5">
<rect width="1021" height="1021" fill="none"/>
</clipPath>
</defs>
</svg>
