<svg viewBox="0 0 157 76" fill="none" xmlns="http://www.w3.org/2000/svg">
<path fill-rule="evenodd" clip-rule="evenodd" d="M78.5 76C121.854 76 157 58.9868 157 38C157 17.0132 121.854 0 78.5 0C35.1456 0 0 17.0132 0 38C0 58.9868 35.1456 76 78.5 76ZM43.8665 43.043C44.2961 41.6367 44.511 40.0156 44.511 38.1797V31.3828C44.511 29.5469 44.2961 27.9323 43.8665 26.5391C43.4368 25.1328 42.8247 23.9544 42.0305 23.0039C41.2231 22.0664 40.2466 21.3568 39.1008 20.875C37.955 20.3932 36.6659 20.1523 35.2336 20.1523C33.8143 20.1523 32.5317 20.3932 31.386 20.875C30.2532 21.3568 29.2896 22.0664 28.4954 23.0039C27.688 23.9544 27.0696 25.1328 26.6399 26.5391C26.2102 27.9323 25.9954 29.5469 25.9954 31.3828V38.1797C25.9954 40.0156 26.2102 41.6367 26.6399 43.043C27.0825 44.4362 27.7075 45.6016 28.5149 46.5391C29.3091 47.4896 30.2792 48.2057 31.425 48.6875C32.5708 49.1693 33.8534 49.4102 35.2727 49.4102C36.705 49.4102 37.994 49.1693 39.1399 48.6875C40.2856 48.2057 41.2557 47.4896 42.05 46.5391C42.8442 45.6016 43.4497 44.4362 43.8665 43.043ZM39.0422 30.1914L31.4641 35.8359V34.918V33.668V30.5234C31.4641 29.4688 31.5422 28.5573 31.6985 27.7891C31.8677 27.0208 32.1216 26.3958 32.4602 25.9141C32.7727 25.4583 33.1567 25.1198 33.6125 24.8984C34.0813 24.6641 34.6216 24.5469 35.2336 24.5469C35.7805 24.5469 36.2688 24.638 36.6985 24.8203C37.1411 24.9896 37.5122 25.2565 37.8118 25.6211C38.2024 26.0768 38.4954 26.6888 38.6907 27.457C38.8989 28.2122 39.0161 29.1237 39.0422 30.1914ZM39.0422 35.6992V39C39.0422 40.0547 38.9575 40.9727 38.7883 41.7539C38.6321 42.5222 38.3911 43.1536 38.0657 43.6484C37.7532 44.1172 37.3625 44.4688 36.8938 44.7031C36.425 44.9245 35.8846 45.0352 35.2727 45.0352C34.6086 45.0352 34.0356 44.905 33.554 44.6445C33.0721 44.3841 32.675 43.987 32.3625 43.4531C32.0891 43.0104 31.8743 42.457 31.718 41.793C31.5747 41.1289 31.4901 40.3672 31.4641 39.5078L39.0422 33.8828V34.7617V35.6992ZM58.0367 32.3984H55.0875V36.6172H58.0367C58.7789 36.6172 59.443 36.7018 60.0289 36.8711C60.6278 37.0403 61.1422 37.3008 61.5719 37.6523C61.9885 38.0039 62.3075 38.4531 62.5289 39C62.7502 39.5469 62.861 40.2044 62.861 40.9727C62.861 41.5847 62.7633 42.138 62.568 42.6328C62.3856 43.1276 62.1122 43.5443 61.7477 43.8828C61.37 44.2604 60.9012 44.5469 60.3414 44.7422C59.7815 44.9375 59.15 45.0352 58.4469 45.0352C57.8219 45.0352 57.2489 44.944 56.7281 44.7617C56.2073 44.5664 55.7581 44.2995 55.3805 43.9609C54.9899 43.6354 54.6903 43.2448 54.4821 42.7891C54.2737 42.3203 54.1696 41.8125 54.1696 41.2656H48.7399C48.7399 42.6458 49.0067 43.8438 49.5406 44.8594C50.0875 45.875 50.8102 46.7148 51.7086 47.3789C52.6071 48.056 53.6292 48.5638 54.775 48.9023C55.9338 49.2279 57.1188 49.3906 58.3297 49.3906C59.736 49.3906 61.0446 49.2083 62.2555 48.8438C63.4794 48.4662 64.5341 47.9193 65.4196 47.2031C66.3049 46.5 67.0016 45.6276 67.5094 44.5859C68.0172 43.5443 68.2711 42.3594 68.2711 41.0312C68.2711 40.2761 68.1799 39.5599 67.9977 38.8828C67.8153 38.2057 67.5354 37.5807 67.1578 37.0078C66.7802 36.4479 66.2985 35.9466 65.7125 35.5039C65.1395 35.0612 64.4559 34.6966 63.6617 34.4102C64.3387 34.0847 64.9377 33.7005 65.4586 33.2578C65.9794 32.8021 66.4156 32.3073 66.7672 31.7734C67.1188 31.2396 67.3856 30.6797 67.568 30.0938C67.7502 29.4948 67.8414 28.8893 67.8414 28.2773C67.8414 26.9492 67.6071 25.7839 67.1383 24.7812C66.6825 23.7656 66.038 22.9128 65.2047 22.2227C64.3713 21.5456 63.3688 21.0378 62.1969 20.6992C61.025 20.3477 59.736 20.1719 58.3297 20.1719C57.0276 20.1719 55.8102 20.3607 54.6774 20.7383C53.5575 21.1159 52.5809 21.6432 51.7477 22.3203C50.9143 23.0104 50.2567 23.8307 49.775 24.7812C49.3063 25.7318 49.0719 26.7864 49.0719 27.9453H54.5016C54.5016 27.4245 54.6057 26.9557 54.8141 26.5391C55.0223 26.1224 55.3088 25.7643 55.6735 25.4648C56.025 25.1784 56.4352 24.957 56.9039 24.8008C57.3856 24.6445 57.9 24.5664 58.4469 24.5664C59.111 24.5664 59.6903 24.6575 60.1852 24.8398C60.693 25.0222 61.1096 25.2761 61.4352 25.6016C61.7606 25.9401 62.0016 26.3438 62.1578 26.8125C62.327 27.2682 62.4117 27.7761 62.4117 28.3359C62.4117 28.9089 62.327 29.4427 62.1578 29.9375C62.0016 30.4193 61.7606 30.8294 61.4352 31.168C61.0836 31.5586 60.6213 31.8646 60.0485 32.0859C59.4885 32.2943 58.818 32.3984 58.0367 32.3984ZM79.5703 29.6641C79.2448 30.0026 78.9453 30.3737 78.6719 30.7773V19H73.2422V49H78.6719V33.7461C78.7926 33.5877 78.9198 33.4381 79.0536 33.2972C79.1508 33.1948 79.2513 33.097 79.3555 33.0039C79.6158 32.7825 79.9023 32.5938 80.2148 32.4375C80.5533 32.2552 80.931 32.1185 81.3477 32.0273C81.7643 31.9362 82.2135 31.8906 82.6953 31.8906C83.3203 31.8906 83.8802 31.9753 84.375 32.1445C84.8698 32.3008 85.293 32.5482 85.6445 32.8867C85.9961 33.2253 86.2631 33.668 86.4453 34.2148C86.6406 34.7617 86.7383 35.4128 86.7383 36.168V49H92.168V36.207C92.168 34.6575 91.9791 33.3359 91.6016 32.2422C91.2369 31.1354 90.7227 30.2305 90.0586 29.5273C89.3945 28.8242 88.6002 28.3099 87.6758 27.9844C86.7513 27.6458 85.7357 27.4766 84.6289 27.4766C83.8737 27.4766 83.1576 27.5872 82.4805 27.8086C81.8033 28.03 81.1849 28.3425 80.625 28.7461C80.2604 29.0065 79.9088 29.3125 79.5703 29.6641ZM96.8461 33.8828C96.4816 35.2109 96.2992 36.6758 96.2992 38.2773V38.6875C96.2992 40.2239 96.488 41.6497 96.8656 42.9648C97.2433 44.2669 97.7902 45.3932 98.5062 46.3438C99.2094 47.2943 100.069 48.043 101.084 48.5898C102.113 49.1237 103.272 49.3906 104.561 49.3906C105.746 49.3906 106.787 49.1628 107.686 48.707C108.584 48.2513 109.366 47.6133 110.03 46.793L110.303 49H115.205V19H109.756V29.7617C109.105 29.0325 108.357 28.4727 107.51 28.082C106.677 27.6784 105.707 27.4766 104.6 27.4766C103.285 27.4766 102.113 27.737 101.084 28.2578C100.069 28.7786 99.2029 29.5143 98.4867 30.4648C97.7706 31.4153 97.2238 32.5547 96.8461 33.8828ZM101.944 41.168C101.801 40.3997 101.729 39.5729 101.729 38.6875V38.2773C101.729 37.3919 101.807 36.5651 101.963 35.7969C102.12 35.0156 102.367 34.332 102.705 33.7461C103.044 33.1732 103.48 32.7239 104.014 32.3984C104.561 32.0599 105.219 31.8906 105.987 31.8906C106.911 31.8906 107.679 32.0925 108.291 32.4961C108.903 32.8867 109.392 33.4401 109.756 34.1562V42.7109C109.392 43.4141 108.897 43.9675 108.272 44.3711C107.66 44.7747 106.885 44.9766 105.948 44.9766C105.179 44.9766 104.528 44.8138 103.995 44.4883C103.461 44.1628 103.025 43.7136 102.686 43.1406C102.347 42.5807 102.1 41.9232 101.944 41.168ZM122.462 57.4375C122.852 57.5026 123.308 57.5352 123.829 57.5352C124.923 57.5352 125.867 57.3529 126.661 56.9883C127.468 56.6237 128.152 56.1745 128.712 55.6406C129.272 55.1068 129.734 54.5273 130.098 53.9023C130.476 53.2773 130.782 52.6979 131.016 52.1641L141.739 27.8672H135.743L130.919 40.2891L130.118 42.3984L129.532 40.25L124.688 27.8672H118.751L127.696 48.1016L126.446 50.4258C126.29 50.7122 126.153 50.9336 126.036 51.0898C125.932 51.2461 125.762 51.4805 125.528 51.793C125.294 52.1055 125.007 52.3919 124.669 52.6523C124.343 52.9258 123.966 53.0625 123.536 53.0625C123.328 53.0625 123.048 53.0495 122.696 53.0234C122.358 53.0104 122.078 53.0039 121.856 53.0039L121.192 57.1445C121.661 57.2747 122.084 57.3724 122.462 57.4375Z" 
fill="currentColor"/>
</svg>
