<svg width="2798" height="2475" viewBox="0 0 2798 2475" fill="none" xmlns="http://www.w3.org/2000/svg">
<rect width="2798" height="2475" fill="#1E1E1E"/>
<rect width="2798" height="2475" fill="#5D5072"/>
<path d="M1172.65 1417.82C1181.65 1379.32 1197.15 1339.62 1041.15 1254.82C885.151 1170.02 844.318 997.989 850.152 942.823C841.485 863.989 861.43 753.006 881.151 716.323C905.053 671.865 1015.96 490.104 1316.15 387.823C1550.79 307.88 1647.65 517.823 1684.15 603.323C1719.09 685.176 1682.65 680.323 1730.15 759.323C1776.6 836.573 1724.65 1056.32 1665.65 1134.82C1606.65 1213.32 1532.65 1254.82 1532.65 1254.82L1388.15 1341.32C1388.15 1341.32 1163.65 1456.32 1172.65 1417.82Z" fill="#202020"/>
<path d="M510 2296.5C550 2067.17 649.6 1609.8 728 1615C826 1621.5 1155.5 1563 1298.5 1451.5C1432.9 1407.9 1488.83 1356.83 1479 1329.5C1613.67 1424.33 1834.2 1616.7 1807 1685.5C1861.5 1710.5 1932 1655.5 2002.5 2014.5C2073 2373.5 2045.5 2317 2036.5 2326C2029.3 2333.2 1785.17 2404.67 1664 2439.5L1078 2362C905.2 2353.2 627.333 2314.67 510 2296.5Z" fill="#A2B2C9"/>
<path d="M1131.85 1460.41L1264.9 1257.07C1264.9 1257.07 1625.35 1279.07 1469.85 1448.57C1314.35 1618.07 1394.6 1632.33 1394.6 1632.33L1131.85 1460.41Z" fill="#A2B2C9"/>
<path d="M723 1686.39C765.024 1596.07 801.545 1534.13 1023.67 1523.81C1246 1513.48 1524.8 1534.09 1520.96 1545.79C1484.44 1653.32 1390.51 1858.56 1359.87 1866C1312.5 1877.5 1153.5 1910 1054 1939C885.606 1868.97 860.218 1794.04 833.048 1744.14L723 1686.39Z" fill="#34385B"/>
<path d="M1459 1511.94C1459 1511.94 1486.5 1476.44 1550 1486.94C1613.5 1497.44 1798.96 2018.63 1823.5 2323.44C1823.5 2323.44 1729.23 2380.36 1691.64 2404.87C1690.29 2408.16 1688.58 2410.38 1686.5 2411.44C1669.81 2419.93 1675.51 2415.39 1691.64 2404.87C1714.85 2348.32 1633.09 1975.54 1557.47 1733.96C1522.03 1655.53 1489.13 1582.84 1463.28 1525.94C1461.83 1521.21 1459 1511.94 1459 1511.94Z" fill="#282C4B"/>
<path d="M1521 1532.28V1349C1704.86 1440.64 2035 1634 1959 1871C1875.54 1746.88 1622.66 1574.81 1521 1532.28Z" fill="#282C4B"/>
<path d="M1402.7 1377.15L1558.38 1499.48C1557.55 1499.56 1556.72 1499.65 1555.88 1499.73C1506.88 1505.9 1394.77 1581.53 1394.51 1854.05C1380.39 1865.87 1248.13 1713.92 1234.01 1674.73C1223.47 1645.47 1114.54 1568.56 1057.79 1528.14C1010.72 1528.43 997.85 1526.05 1046.42 1520.02C1197.8 1501.24 1352.89 1418.22 1402.7 1377.15Z" fill="#282C4B"/>
<path d="M1352.24 1163.71C1146.63 1158.34 1087.26 961.376 1078.1 870.61C1085.21 795.346 1192.74 725.755 1204.38 671.61C1233.42 603.54 1244.42 488.808 1350.92 470.895C1471.36 450.637 1526.83 511.994 1579.85 599.37C1632.31 685.833 1576.7 776.107 1606.85 839.726C1637 903.345 1640.57 908.07 1634.86 968.433C1632.89 989.34 1609.24 1170.42 1352.24 1163.71Z" fill="#DFAA84"/>
<path d="M1266 1117.29C1295.41 1141.56 1354.66 1160.31 1413.87 1158.98C1418.36 1158.88 1435.07 1155.98 1437.31 1155.31C1443.25 1153.52 1442.63 1155.42 1437.25 1159.96L1436.64 1206.66L1266.09 1269.78C1275.91 1237.42 1289.63 1161.61 1266 1117.29Z" fill="#DFAA84"/>
<path d="M1139.08 971.355C1134.95 1022.83 1099.47 1061.98 1059.83 1058.8C1020.2 1055.62 1059.19 1016.75 1063.32 965.28C1067.45 913.807 1035.14 869.221 1074.78 872.399C1114.42 875.577 1143.2 919.881 1139.08 971.355Z" fill="#DFAA84"/>
<mask id="mask0_25_13" style="mask-type:alpha" maskUnits="userSpaceOnUse" x="1075" y="470" width="561" height="699">
<path d="M1353.76 1168.17C1148.1 1165.73 1085.94 969.632 1075.48 879.006C1081.52 803.648 1188.05 732.534 1198.92 678.23C1226.99 609.754 1236.35 494.876 1342.59 475.45C1462.73 453.482 1519.07 514.044 1573.32 600.657C1627 686.366 1572.69 777.421 1603.74 840.605C1634.79 903.789 1638.43 908.462 1633.58 968.9C1631.9 989.833 1610.84 1171.23 1353.76 1168.17Z" fill="#E2B5AB"/>
</mask>
<g mask="url(#mask0_25_13)">
<path d="M1710.91 1021.04C1700.21 1067.08 1672.61 1081.31 1625.39 1064.92C1578.17 1048.53 1544.66 1018.16 1561.65 969.218C1585.81 920.973 1608.31 917.142 1656.15 933.75C1699.9 948.942 1717.12 966.563 1710.91 1021.04Z" fill="#E79981"/>
</g>
<path d="M1304.91 1065.04C1294.21 1111.08 1266.61 1125.31 1219.39 1108.92C1172.17 1092.53 1138.66 1062.16 1155.65 1013.22C1179.81 964.973 1202.31 961.142 1250.15 977.75C1293.9 992.942 1311.12 1010.56 1304.91 1065.04Z" fill="#E79981"/>
<path d="M1460.64 952.18C1449.76 950.005 1456.68 950.107 1452.95 939.711C1449.22 929.314 1438.62 925.926 1447.55 915.285C1455.35 912.488 1460.98 925.093 1464.71 935.49C1468.44 945.886 1468.43 949.383 1460.64 952.18Z" fill="#1C1C1C"/>
<path d="M1430.15 1005.93C1429.13 994.769 1434.2 994.929 1441.09 996.418C1444.98 997.789 1458.95 999.854 1466.48 998.817C1475.13 997.626 1487.8 985.766 1493.61 982.799C1496.28 981.433 1504.92 985.374 1494 999.911C1485.27 1011.54 1470.86 1016.31 1459.67 1017.76C1448.13 1017.67 1430.89 1014.04 1430.15 1005.93Z" fill="#110000"/>
<path d="M1214.87 883.3C1223.42 866.274 1240.41 853.607 1251.58 861.453C1263.67 867.526 1272.47 907.198 1256.13 918.572C1234.42 930.608 1231.79 923.133 1222.85 918.645C1213.92 914.157 1206.32 900.327 1214.87 883.3Z" fill="#110000"/>
<path d="M1546.99 827.754C1545.82 840.125 1540.4 854.753 1530.64 862.369C1516.28 865.531 1497.97 846.725 1496.18 828.475C1497.34 816.104 1513.98 799.522 1526.71 797.711C1542.63 799.217 1548.16 815.382 1546.99 827.754Z" fill="#110000"/>
<path d="M1176.88 740.326C1134.78 752.158 1103.16 799.419 1091 820.045C1102.95 810.561 1127.3 799.431 1138.83 792.177C1153.25 783.109 1218.9 765.159 1224.71 765.707C1232.17 766.413 1288.01 760.162 1294.69 758.597C1301.36 757.032 1315.02 750.638 1312.21 727.315C1309.39 703.991 1229.51 725.537 1176.88 740.326Z" fill="#110000"/>
<path d="M1563.42 784.896C1576.04 787.881 1575.25 791.216 1572.77 795.33C1570.77 797.477 1562.61 803.115 1558.6 806.784C1554.15 810.857 1546.02 812.652 1546.66 800.728C1548.13 793.046 1554.26 782.729 1563.42 784.896Z" fill="#110000"/>
<path d="M1203.95 867.407C1211.87 874.298 1208.51 882.269 1202.25 881.517C1196.75 880.529 1179.72 874.859 1176.14 869.81C1171.67 863.501 1175.99 860.174 1189.43 859.998C1194.24 860.862 1198.59 862.751 1203.95 867.407Z" fill="#110000"/>
<path d="M1275.57 849.741C1277.13 854.738 1271 860.214 1268.32 861.336C1266.06 861.972 1260.11 861.447 1260.01 857.097C1259.88 851.66 1262.57 844.754 1268.82 844.667C1270.79 844.11 1274.52 846.364 1275.57 849.741Z" fill="#110000"/>
<path d="M1477.06 808.604C1479.48 803.964 1483.79 803.991 1486.48 805.084C1488.53 806.224 1494.07 811.35 1491.07 814.507C1487.33 818.452 1483.77 816.677 1480.31 815.649C1478.52 814.651 1475.42 811.739 1477.06 808.604Z" fill="#110000"/>
<mask id="mask1_25_13" style="mask-type:alpha" maskUnits="userSpaceOnUse" x="1076" y="466" width="560" height="698">
<path d="M1351.02 1163.33C1145.42 1157.96 1086.05 961.003 1076.89 870.237C1084 794.973 1191.52 725.382 1203.17 671.237C1232.2 603.167 1243.2 488.434 1349.71 470.521C1470.15 450.264 1525.62 511.621 1578.63 598.997C1631.09 685.46 1575.49 775.734 1605.64 839.353C1635.78 902.972 1639.36 907.697 1633.65 968.06C1631.68 988.967 1608.03 1170.05 1351.02 1163.33Z" fill="#E2B5AB"/>
</mask>
<g mask="url(#mask1_25_13)">
<path d="M1621.95 698.486C1656.34 717.244 1622.89 697.254 1630.28 727.306C1620.65 712.089 1617.2 709.966 1602.92 708.616C1587.98 707.204 1548.21 722.532 1542.39 721.982C1534.91 721.275 1462.88 744.887 1456.52 743.093C1452.13 741.854 1442.71 738.626 1441.5 729.744C1440.86 725.004 1442.55 718.653 1448.59 710.134C1456.12 699.513 1571.86 671.159 1621.95 698.486Z" fill="#110000"/>
</g>
<mask id="mask2_25_13" style="mask-type:alpha" maskUnits="userSpaceOnUse" x="448" y="1201" width="1088" height="768">
<path fill-rule="evenodd" clip-rule="evenodd" d="M1219.66 1746.5C1431.26 1603.3 1517.16 1299.67 1535.66 1201C1413.83 1238.33 1186.66 1349.4 1146.66 1387C1132.34 1400.46 1125.65 1415.02 1118.91 1429.69C1102.1 1466.26 1084.98 1503.52 948.658 1526C790.224 1552.13 778.055 1566.47 747.363 1602.64C741.054 1610.07 733.963 1618.43 724.658 1628C707.158 1646 663.658 1748 649.658 1793.5L884.589 1924C930.844 1886.55 950.527 1881.2 978.181 1873.69C1015.59 1863.54 1067.58 1849.42 1219.66 1746.5Z" fill="#773F2D"/>
</mask>
<g mask="url(#mask2_25_13)">
<path d="M717.424 943.837C988.072 853.212 1424.15 795.05 1501.64 1026.47C1579.13 1257.89 1306.8 1602.25 998.044 1781.89C727.396 1872.52 524.351 1876.51 446.86 1645.09C369.369 1413.67 446.776 1034.46 717.424 943.837Z" fill="#202020"/>
</g>
<path d="M1644.5 1724.8C1644.5 1733.27 1640.99 1742.1 1635.15 1748.8C1629.33 1755.48 1621.7 1759.5 1613.77 1759.5C1606.36 1759.5 1599.92 1755.42 1594.41 1748.25C1588.97 1741.18 1585.09 1731.86 1582.92 1723.42C1581.16 1708.71 1585.11 1702.6 1589.49 1699.49C1594.67 1695.82 1602.74 1694.58 1612.79 1694.5C1624.23 1697.63 1632.08 1701.39 1637.07 1706.03C1641.85 1710.48 1644.5 1716.22 1644.5 1724.8Z" fill="white" stroke="#1C1C1C" stroke-width="15"/>
<path d="M1693.54 1915.85C1701.78 1917.77 1709.59 1923.19 1714.8 1930.39C1719.99 1937.57 1722.18 1945.9 1720.39 1953.63C1718.71 1960.85 1713.28 1966.2 1705.05 1969.95C1696.93 1973.65 1686.98 1975.32 1678.27 1975.52C1663.54 1973.91 1658.48 1968.68 1656.45 1963.71C1654.04 1957.84 1654.65 1949.69 1656.85 1939.89C1662.49 1929.45 1667.92 1922.65 1673.57 1918.85C1678.99 1915.2 1685.17 1913.91 1693.54 1915.85Z" fill="white" stroke="#1C1C1C" stroke-width="15"/>
<path d="M1777.5 2218.8C1777.5 2227.27 1773.99 2236.1 1768.15 2242.8C1762.33 2249.48 1754.7 2253.5 1746.77 2253.5C1737.72 2253.5 1731.4 2250.96 1726.88 2247.02C1722.34 2243.06 1718.96 2237.12 1716.89 2229.11C1715.13 2214.35 1718.81 2204.39 1724.27 2198.17C1729.87 2191.8 1738.08 2188.5 1746.77 2188.5C1761.37 2188.5 1768.33 2192.36 1771.98 2196.82C1775.88 2201.6 1777.5 2208.84 1777.5 2218.8Z" fill="white" stroke="#1C1C1C" stroke-width="15"/>
<path d="M1471.22 1549.6C1407.17 1612.9 1394.61 1778.46 1392.48 1842.51L1419.05 1713.57C1432.33 1648.82 1502.2 1518.98 1471.22 1549.6Z" fill="#120F23"/>
<path d="M1900.8 1788.83C1964.8 1836.82 1706.79 1582.63 1678.79 1596.33C1678.79 1596.33 1662.79 1605.83 1695.8 1613.83C1728.8 1621.82 1880.8 1773.83 1900.8 1788.83Z" fill="#120F23"/>
<path d="M1252.21 1679.29C1220.46 1649.56 1343.67 1801.16 1360.32 1796.03C1360.32 1796.03 1369.96 1792.23 1352.26 1785.65C1334.55 1779.07 1262.14 1688.59 1252.21 1679.29Z" fill="#120F23"/>
<path d="M1509.3 1402.28C1513.7 1500.6 1521.58 1477.24 1526.65 1447.7C1526.65 1447.7 1537.14 1425.94 1530.16 1380.69C1523.18 1335.45 1506.21 1333.22 1509.3 1402.28Z" fill="#120F23"/>
<path d="M1795.22 2100.01C1870.2 2100.01 1930.29 2025.48 2000.63 2025.48" stroke="#FFEBEB" stroke-width="16" stroke-linecap="round"/>
<path d="M1822.49 2254.52C1875.34 2254.52 1921.67 2232.83 1971.95 2221.4C1982.85 2218.92 2028.01 2198.21 2027.9 2198.17" stroke="#FFEBEB" stroke-width="16" stroke-linecap="round"/>
<path d="M1753.41 1936.41C1805.91 1936.41 1860.86 1941.13 1906.21 1909.95C1922.68 1898.63 1937.75 1881.02 1957 1874.6" stroke="#FFEBEB" stroke-width="16" stroke-linecap="round"/>
<path d="M1711.6 1803.71C1737.54 1803.71 1815.51 1783.12 1829.76 1754.63" stroke="#FFEBEB" stroke-width="16" stroke-linecap="round"/>
<path d="M1577.08 1827.34C1518.69 1827.34 1460.89 1829.16 1402.58 1829.16" stroke="#FFEBEB" stroke-width="16" stroke-linecap="round"/>
<path d="M1609 1942.76C1480.43 1942.76 1351.86 1942.76 1223.3 1942.76C1180.17 1942.76 1063.52 1969.26 1094.02 1937" stroke="#FFEBEB" stroke-width="16" stroke-linecap="round"/>
<path d="M992 1931.06C885.731 1931.06 696.087 1970.35 595 1917" stroke="#FFEBEB" stroke-width="16" stroke-linecap="round"/>
<path d="M1647 2120.43C1346.59 2120.43 1046.18 2120.43 745.764 2120.43C683.467 2120.43 608.119 2126.63 554 2098" stroke="#FFEBEB" stroke-width="16" stroke-linecap="round"/>
<path d="M1679.03 2265.96C1422.4 2265.96 1146.65 2228.2 895.812 2293.72C845.726 2306.81 770.162 2327.62 718.398 2327.62" stroke="#FFEBEB" stroke-width="16" stroke-linecap="round"/>
<path d="M1454.81 1315.6C1475.14 1319.66 1489.1 1348.37 1504.82 1356.23" stroke="#606060" stroke-width="16" stroke-linecap="round"/>
<path d="M918.972 1857.03C945.466 1886.47 983.807 1909.78 1021.97 1921.7C1037.16 1926.45 1056.22 1945.95 1071.26 1939.01C1092.55 1929.19 1114.56 1921.36 1135.86 1912.05C1173.79 1895.45 1238.45 1894 1279.19 1891.8C1314.51 1889.89 1341.11 1858.42 1376.54 1858.42" stroke="#606060" stroke-width="16" stroke-linecap="round"/>
<path d="M919.391 1858.39C918.109 1858.23 918.47 1857.94 918 1857" stroke="#606060" stroke-width="16" stroke-linecap="round"/>
<path d="M1802 1736C1802 1781.92 1835.63 1819.24 1850.56 1861.52C1872.73 1924.36 1896.6 1986.62 1915.5 2050.94C1938.02 2127.61 1971.76 2200.87 1991.41 2278.39C1993.71 2287.44 2006.1 2360.29 2013.06 2363.77" stroke="#606060" stroke-width="16" stroke-linecap="round"/>
<path d="M1436 1778C1436 2001.63 1557.77 2220.41 1557.77 2443.66" stroke="#606060" stroke-width="16" stroke-linecap="round"/>
<path d="M1238.4 1900.41C1238.4 2066.13 1262.75 2227.05 1262.75 2392.89" stroke="#606060" stroke-width="16" stroke-linecap="round"/>
<path d="M1041 1976.41C1041 1830.29 1041 2268.65 1041 2414.77" stroke="#606060" stroke-width="16" stroke-linecap="round"/>
<path d="M796.059 1843C796.059 2005.57 769 2167.34 769 2327.36" stroke="#606060" stroke-width="16" stroke-linecap="round"/>
<path d="M646 1824C646 1998.67 648.706 2173.26 648.706 2346.24" stroke="#606060" stroke-width="16" stroke-linecap="round"/>
<path d="M1070.76 1941.72C1087.7 1941.72 1101.97 1942.94 1111.78 1925.77C1117.05 1916.55 1092.92 1937.88 1082.3 1937.88" stroke="#606060" stroke-width="16" stroke-linecap="round"/>
<path d="M1093.83 1935.31C1132.48 1935.31 1165.47 1901.91 1205.28 1896.93C1236.53 1893.02 1262.96 1893.29 1293.79 1884.04" stroke="#606060" stroke-width="16" stroke-linecap="round"/>
<path d="M920.79 1862.25C920.79 1846.32 868.062 1827.79 868.521 1827.93C884.861 1832.96 899.535 1839.64 913.811 1848.72C923.323 1854.77 929.215 1868.91 940.017 1872.51" stroke="#606060" stroke-width="16" stroke-linecap="round"/>
<path d="M948.989 1877.63C918.597 1877.63 888.51 1854.18 867.738 1833.41C856.175 1821.85 920.494 1853.15 926.558 1855.84C975.833 1877.74 1014.29 1912.65 1066.91 1930.19" stroke="#606060" stroke-width="16" stroke-linecap="round"/>
<path d="M988.725 1903.27C972.943 1897.81 960.333 1886.41 948.989 1875.07" stroke="#606060" stroke-width="16" stroke-linecap="round"/>
<path d="M1015.64 1907.11C1037.21 1907.11 1055.93 1917.37 1077.81 1917.37C1087.94 1917.37 1122.44 1916.09 1120.75 1916.09" stroke="#606060" stroke-width="16" stroke-linecap="round"/>
<path d="M1054.1 1923.78C1057.63 1923.78 1077.88 1926.21 1079.73 1922.5" stroke="#606060" stroke-width="16" stroke-linecap="round"/>
<path d="M990.007 1889.17C1018.7 1889.17 1050.67 1899.46 1078.45 1906.4C1116.27 1915.86 1169.66 1895.05 1207.34 1888.88C1239.88 1883.56 1272.17 1883.46 1304.62 1877.56C1333.42 1872.32 1361.06 1857.77 1389.93 1852" stroke="#606060" stroke-width="16" stroke-linecap="round"/>
<path d="M1014.47 1892.06C985.087 1892.06 960.369 1887.58 934.393 1872.33C924.813 1866.71 965.167 1874.68 975.022 1876.47C983.208 1877.96 991.472 1881.63 999.557 1882.79C1007.93 1883.98 1053.1 1908.07 1053.52 1905.55" stroke="#606060" stroke-width="16" stroke-linecap="round"/>
<path d="M884.533 1834.54C878.823 1834.54 872.596 1835.56 867.651 1832.57C864.593 1830.72 855.461 1823.18 863.233 1823.18C887.461 1823.18 895.543 1831.83 908.674 1853.71" stroke="#606060" stroke-width="16" stroke-linecap="round"/>
<path d="M866.073 1821.05C901.707 1821.05 936.193 1847.9 967.29 1864.36C978.911 1870.52 995.525 1873.18 1005.59 1881.01C1015.26 1888.53 1055.42 1899.89 1058.49 1909.1" stroke="#606060" stroke-width="16" stroke-linecap="round"/>
<path d="M856.419 1828.17C863.087 1828.54 870.372 1838.24 875.562 1841.79C885.486 1848.59 894.979 1856.66 904.613 1863.95C924.798 1879.23 944.635 1898.67 968.101 1908.97C986.583 1917.08 1006.09 1926.42 1026.11 1930.2C1034.58 1931.8 1043.02 1933.99 1051.63 1934.81C1057.66 1935.39 1077.32 1939.37 1071.13 1931.48" stroke="#606060" stroke-width="16" stroke-linecap="round"/>
<path d="M947.612 1889.35C958.143 1904.21 983.666 1913.64 998.628 1923.11C1010.91 1930.88 1025.96 1943.13 1040.86 1945.04C1057.63 1947.19 1085.62 1942.33 1094.79 1926.28" stroke="#606060" stroke-width="16" stroke-linecap="round"/>
<path d="M713.022 1640.34C713.022 1593.51 795.601 1557.43 832.362 1549.26C880.004 1538.68 927.85 1524.23 976.738 1519.34C1016.66 1515.35 1070.15 1496.29 1095.29 1463.77C1118.81 1433.36 1133.92 1379.13 1174.68 1365.54" stroke="#1C1C1C" stroke-width="16" stroke-linecap="round"/>
<path d="M766.411 1767.53C829.355 1767.53 884.931 1752.79 938.965 1719.64C953.723 1710.58 1030.21 1672.93 1030.21 1660.75" stroke="#1C1C1C" stroke-width="16" stroke-linecap="round"/>
<path d="M1121.29 1684.31C1149.76 1682.81 1186.82 1636.68 1206.08 1620.27C1242.58 1589.18 1264.52 1545.79 1297.85 1512.45C1356.16 1454.15 1408.3 1380.36 1444.76 1307.44" stroke="#1C1C1C" stroke-width="16" stroke-linecap="round"/>
<path d="M1451.04 373.144C1401.86 373.144 1347.17 370.583 1302.74 395.825C1265.32 417.085 1231.54 444.005 1192.82 462.997C1109.14 504.051 1037.91 570.096 992.877 652.3C956.612 718.497 926.944 781.69 915.585 857.305C906.252 919.441 897.672 1008.92 934.428 1064.06" stroke="#1C1C1C" stroke-width="16" stroke-linecap="round"/>
<path d="M1644.23 1052.17C1646.11 1016.42 1672.9 976.546 1680.04 940.452C1685.63 912.186 1689.47 884.297 1688.55 855.393C1687.69 828.094 1659.47 797.494 1648.53 772.879" stroke="#1C1C1C" stroke-width="11" stroke-linecap="round"/>
<path d="M1029.8 1060.76C1029.8 1105.92 1106.57 1140.25 1137.22 1163.09C1159.53 1179.71 1190.18 1194.64 1205.96 1218.31" stroke="#1C1C1C" stroke-width="11" stroke-linecap="round"/>
<path d="M1511.69 1178.12C1155.38 1308 1055 978.31 1085.23 810L954 1017.82L1210.5 1366C1403.38 1253.07 1868 1048.23 1511.69 1178.12Z" fill="#202020"/>
<path d="M1110.27 1027.06C1110.87 1022.6 1123.56 1026 1125.01 1028.94C1128.74 1041.52 1134.28 1095.46 1120.63 1070.81C1114.99 1060.62 1108.73 1038.58 1110.27 1027.06Z" stroke="#FFDA56" stroke-width="11" stroke-linecap="round"/>
<path d="M828.638 595.619C828.638 601.617 839.956 608.216 842.613 613.088C844.539 616.619 845.281 620.687 847.289 624.166C851.522 631.505 832.672 614.158 828.989 606.529C825.546 599.397 840.079 617.863 845.12 623.972C848.754 628.375 843.189 630.838 838.898 630.92C834.612 631.002 832.605 634.055 834.379 638.869C834.436 639.026 837.141 636.123 837.47 635.83C838.32 635.072 839.486 635.082 838.924 633.959" stroke="white" stroke-width="11" stroke-linecap="round"/>
<path d="M807.079 1304.08C807.079 1300.08 807.079 1296.08 807.079 1292.09C807.079 1283.71 809.648 1305.33 809.78 1306.16C810.932 1313.46 810.426 1325.23 817.346 1330.08C818.484 1330.88 825.275 1335.52 824.261 1334.67" stroke="white" stroke-width="11" stroke-linecap="round"/>
<path d="M823.027 685.158C823.027 678.106 833.486 665.341 837.859 660.611C843.786 654.198 851.079 646.268 858.523 641.7C864.207 638.212 870.38 633.399 877.226 632.544C877.746 632.478 868.535 626.031 867.186 625.517C864.765 624.595 862.187 624.057 859.887 622.841C857.407 621.532 864.819 625.513 867.316 626.79C871.234 628.794 874.289 630.185 878.382 631.336C879.123 631.544 882.349 631.508 881.603 631.219C873.806 628.193 865.71 625.983 857.484 624.491C850.466 623.218 842.846 622.981 836.599 619.166C829.327 614.724 824.333 606.548 818.117 600.814C815.205 598.128 811.877 595.269 810.065 591.644C809.06 589.634 798.402 601.878 796.661 603.619C789.791 610.49 782.426 621.849 781.426 631.842C781.015 635.956 787.689 638.175 790.674 639.804C797.864 643.726 804.317 649.606 811.468 653.181C816.319 655.607 814.849 654.365 812.325 649.48C806.409 638.03 802.931 624.101 795.103 613.776C792.408 610.222 795.736 617.338 795.999 617.88C798.374 622.787 799.991 626.944 800.714 632.206C801.311 636.559 797.657 629.086 796.583 627.777C791.169 621.174 801.305 637.183 801.662 637.778C802.829 639.726 814.189 660.47 813.208 659.909" stroke="white" stroke-width="11" stroke-linecap="round"/>
<path d="M754.485 1341.8C762.591 1341.8 768.956 1343.95 776.65 1345.23C780.865 1345.93 785.75 1336.78 787.534 1333.9C789.821 1330.21 790.85 1325.96 792.051 1331.92C793.044 1336.86 794.061 1341.79 795.066 1346.72C795.713 1349.89 795.511 1345.88 795.625 1344.79C796.334 1337.92 797.601 1331.16 799.152 1324.44C800.523 1318.5 800.472 1322.91 800.793 1326.55C801.676 1336.54 802.024 1346.59 803.214 1356.56C803.598 1359.77 803.131 1347.68 803.098 1346.89C803.015 1344.89 801.427 1318.49 802.935 1331.76C803.823 1339.58 805.478 1347.86 804.984 1355.76C804.862 1357.72 800.201 1355.75 799.303 1355.37C797.74 1354.71 795.485 1353.45 795.485 1351.43C795.485 1349.1 807.056 1356.64 807.312 1356.82C810.542 1359.19 812.974 1361.87 815.845 1364.54C816.184 1364.86 816.142 1363.65 816.182 1363.19C816.466 1359.95 816.842 1356.72 817.312 1353.51C817.999 1348.79 818.206 1341.86 820.571 1337.55C822.921 1333.26 822.126 1347.22 822.282 1352.11C822.58 1361.42 819.007 1372 820.513 1381.04C821.357 1386.1 822.843 1378.88 823.621 1377.37C827 1370.8 832.334 1364.99 837.346 1359.63C841.989 1354.66 849.413 1351.12 852.502 1344.94C855.594 1338.75 841.928 1336.77 837.811 1335.23C834.906 1334.14 831.321 1332.24 828.173 1332.16C824.875 1332.07 827.051 1345.66 827.579 1347.6C827.745 1348.21 833.188 1360.19 834.831 1357.95C837.207 1354.71 835.927 1351.25 833.516 1348.71C828.539 1343.46 822.926 1339.28 817.486 1334.58C813.05 1330.74 811.292 1331.09 806.078 1329.08C801.021 1327.14 797.103 1322.6 799.419 1316.95C799.947 1315.67 803.656 1307.85 804.332 1310.39C804.435 1310.78 804.313 1309.51 804.029 1309.22C802.923 1308.12 806.682 1307.25 807.498 1307.01" stroke="white" stroke-width="11" stroke-linecap="round"/>
<path d="M754 1346.07C787.585 1346.07 792.086 1323.4 800.298 1298.06C805.984 1280.52 806.977 1262.83 808.203 1244.9C809.183 1230.56 813.069 1273.37 813.285 1287.74C813.477 1300.59 813.073 1325.21 828.404 1331.61C850.903 1341 862.154 1340.39 886.684 1340.39C894.364 1340.39 871.109 1342.76 864.664 1346.58C857.158 1351.03 852.147 1355.12 846.722 1361.55C832.062 1378.92 823.485 1401.09 818.68 1422.43C817.305 1428.54 817.237 1435.28 817.237 1441.5C817.237 1444.67 815.771 1453.12 817.55 1445.69C822.244 1426.07 820.457 1406.43 816.076 1387.07C812.025 1369.17 792.171 1353.43 772.883 1350.22C768.623 1349.52 778.611 1350.71 779.972 1350.71C787.392 1350.71 793.348 1348.32 798.761 1343.51C804.204 1338.68 808.768 1333.42 808.768 1326.25C808.768 1309.68 809.477 1361.29 819.746 1374.94C825.075 1382.03 824.306 1369.46 826.051 1364.3C827.379 1360.38 828.448 1353.99 833.171 1352.26C835.862 1351.28 848.068 1348.13 839.853 1348.13C811.654 1348.13 818.275 1334.33 805.38 1316.64" stroke="white" stroke-width="11" stroke-linecap="round"/>
<path d="M1756.5 1277.76V1420.51" stroke="white" stroke-width="11" stroke-linecap="round"/>
<path d="M1708.29 1396.17C1712.09 1378.8 1742.13 1354.25 1754.7 1340.91C1767.47 1327.35 1785.79 1302.19 1803.27 1294.2" stroke="white" stroke-width="11" stroke-linecap="round"/>
<path d="M1703.97 1302.1C1731.11 1310.9 1755.48 1340 1777.21 1356.7C1784.07 1361.97 1819.39 1383.18 1797.52 1375.78" stroke="white" stroke-width="11" stroke-linecap="round"/>
<path d="M1691.74 1338.94C1730.59 1338.94 1772.33 1341.38 1810.79 1335.32C1815.59 1334.56 1850.44 1335.5 1850.76 1334.33" stroke="white" stroke-width="11" stroke-linecap="round"/>
<path d="M1852.17 1281.36C1946.31 1281.36 1989.38 1204.65 2008.88 1129.6C2019.54 1088.56 2012.12 1066.46 1963.12 1066.46C1940.83 1066.46 1929.42 1083.39 1923.64 1100.29C1900.06 1169.28 1988.45 1185.44 2034.23 1147.77C2076.5 1113 2095.7 1059.13 2095.7 1008.81C2095.7 983.903 2077.25 942.746 2048.06 933.849" stroke="white" stroke-width="11" stroke-linecap="round"/>
<path d="M1799.12 658.849C1807.3 658.849 1817.85 657.168 1825.81 659.123C1836.83 661.828 1848.61 676.015 1855.54 683.593C1873.19 702.867 1884.21 722.082 1884.86 747.541C1885.05 755.029 1884.95 762.559 1884.88 770.05C1884.85 773.519 1885.65 785.722 1883.08 777.006C1877.69 758.689 1884.52 738.744 1888.25 720.653C1894.27 691.426 1915.03 675.701 1944.4 665.417C1950.69 663.214 1970.62 660.491 1963.88 660.491C1956.37 660.491 1945.57 654.401 1938.54 651.893C1927.21 647.85 1915.23 646.709 1904.54 641.197C1893.73 635.625 1890.09 623.98 1885.33 614.241C1878.23 599.725 1873.21 580.806 1873.21 564.844C1873.21 557.86 1873.47 578.877 1872.31 585.779C1867.52 614.07 1856.76 658.849 1817.97 658.849" stroke="white" stroke-width="11" stroke-linecap="round"/>
<path d="M1871.41 576.748C1871.41 563.868 1866.99 525.402 1868.74 538.183C1870.29 549.492 1871.41 560.251 1871.41 571.822" stroke="white" stroke-width="11" stroke-linecap="round"/>
<path d="M2003.86 482.945C2003.86 511.055 2007.67 538.904 2007.67 566.912C2007.67 578.271 2008.98 589.551 2009.31 600.853C2009.4 603.886 2011.45 620.724 2008.22 618.265" stroke="white" stroke-width="11" stroke-linecap="round"/>
<path d="M1959.79 597.37C1979.62 577.938 1996.68 556.41 2016.62 536.924C2018.09 535.491 2042.1 511.996 2040.87 510.308" stroke="white" stroke-width="11" stroke-linecap="round"/>
<path d="M1961.96 517.273C1982.4 522.828 2004.41 544.618 2022.64 555.359C2033.17 561.565 2045.05 567.858 2053.93 575.978" stroke="white" stroke-width="11" stroke-linecap="round"/>
<path d="M1945.09 554.586C1973.28 554.586 1999.73 551.255 2027.57 547.621C2035.89 546.534 2071.68 542.799 2071.34 542.646" stroke="white" stroke-width="11" stroke-linecap="round"/>
<path d="M1599.07 377.532C1599.07 353.035 1605.3 322.287 1596.8 299" stroke="white" stroke-width="11" stroke-linecap="round"/>
<path d="M1640.89 390.966C1662.96 379.282 1696.07 357.232 1707.57 336.2" stroke="white" stroke-width="11" stroke-linecap="round"/>
<path d="M826.736 763.854C826.736 739.806 824.195 712.936 831.844 689.626C837.059 673.733 859.499 650.628 874.63 640.626C882.42 635.477 892.604 631.335 901.926 629.316C907.239 628.166 920.473 628.999 908.095 626.587C881.031 621.314 865.217 617.948 851.247 594.658C838.321 573.11 832.661 538.342 829.389 514.063C825.668 486.445 831.43 523.342 829.091 533.499C820.434 571.092 800.624 606.299 764.779 626.86C761.495 628.744 729.236 635.233 745.609 636.169C763.138 637.17 781.254 637.806 796.421 646.63C810.97 655.094 820.189 672.925 823.784 687.716C825.415 694.426 824.945 702.089 824.945 709.032C824.945 711.249 826.824 719.769 824.945 714.187C817.744 692.791 823.154 663.769 823.154 641.718C823.154 617.078 839.289 545.476 828.228 567.945C821.4 581.817 815.482 602.071 804.68 613.428C799.881 618.472 789.967 617.028 785.078 622.615C783.927 623.93 807.642 637.276 809.688 639.413C813.405 643.297 809.369 629.158 809.423 625.89C809.61 614.476 817.097 611.784 807.035 616.915C804.579 618.167 778.046 625.355 778.046 627.83C778.046 630.976 784.985 628.327 788.229 629.377C792.572 630.782 796.89 632.917 800.467 635.593C803.292 637.705 810.754 639.254 812.408 641.9C815.324 646.566 815.856 645.496 815.525 640.808C814.301 623.455 822.097 605.023 824.812 587.745C825.84 581.205 834.807 550.294 832.408 555.119C826.084 567.837 838.61 584.813 842.524 596.569C845.713 606.148 851.866 609.651 857.781 617.46C867.394 630.154 872.21 624.142 853.668 634.501C844.232 639.773 830.794 649.543 831.512 660.699C831.873 666.308 840.499 653.029 844.845 649.056C847.415 646.706 851.844 645.595 854.066 643.112C859.963 636.523 830.915 616.607 830.915 609.182C830.915 595.331 829.721 664.575 829.721 650.723C829.721 636.208 835.094 592.938 835.094 607.454C835.094 624.495 837.618 643.035 834.033 659.789C832.96 664.802 830.915 670.351 830.915 675.435" stroke="white" stroke-width="11" stroke-linecap="round"/>
<path d="M689.565 847.44C689.565 833.809 688.633 819.272 693.406 806.182" stroke="white" stroke-width="11" stroke-linecap="round"/>
<path d="M708.769 769.753C708.769 761.563 712.217 753.712 715.01 746.052" stroke="white" stroke-width="11" stroke-linecap="round"/>
<path d="M750.537 705.672C752.818 703.642 759.007 696.455 762.54 696.455" stroke="white" stroke-width="11" stroke-linecap="round"/>
<path d="M699.167 904.06C703.293 909.77 707.648 915.276 712.129 920.738" stroke="white" stroke-width="11" stroke-linecap="round"/>
<path d="M756.299 948.389H777.904" stroke="white" stroke-width="11" stroke-linecap="round"/>
<path d="M813.911 921.616C819.079 920.757 817.426 912.407 819.672 909.326" stroke="white" stroke-width="11" stroke-linecap="round"/>
<path d="M800.468 862.363C807.278 862.363 812.288 864.92 816.312 869.825" stroke="white" stroke-width="11" stroke-linecap="round"/>
<path d="M740.936 860.607C745.421 858.611 748.565 857.535 753.418 857.535" stroke="white" stroke-width="11" stroke-linecap="round"/>
<path d="M675.642 927.322C671.876 933.599 667 942.381 667 949.706" stroke="white" stroke-width="11" stroke-linecap="round"/>
<path d="M674.202 1018.18C680.373 1029.99 689.552 1039.84 700.127 1048.46" stroke="white" stroke-width="11" stroke-linecap="round"/>
<path d="M754.859 1079.18C758.45 1083.44 763.067 1086.94 767.342 1090.6" stroke="white" stroke-width="11" stroke-linecap="round"/>
<path d="M815.352 1112.54C819.57 1115.98 824.57 1118.91 829.755 1120.88" stroke="white" stroke-width="11" stroke-linecap="round"/>
<path d="M1696.74 424.531C1713.99 420.266 1737.3 407.01 1755.07 407.01" stroke="white" stroke-width="11" stroke-linecap="round"/>
<path d="M951.851 1381.53C951.851 1394.21 979.696 1374.65 965.047 1371.67C954.561 1369.54 953.403 1378.52 953.403 1385.79" stroke="white" stroke-width="11" stroke-linecap="round"/>
</svg>
