<svg width="2320" height="2320" viewBox="0 0 2320 2320" fill="none" xmlns="http://www.w3.org/2000/svg">
<g clip-path="url(#clip0_30_161)">
<rect width="2320" height="2320" fill="#D9DADE"/>
<path d="M944.651 1411.82C953.651 1373.32 969.151 1333.62 813.151 1248.82C657.151 1164.02 616.318 991.989 622.152 936.823C613.485 857.989 633.43 747.006 653.151 710.323C677.053 665.865 787.957 484.104 1088.15 381.823C1322.79 301.88 1419.65 511.823 1456.15 597.323C1491.09 679.176 1454.65 674.323 1502.15 753.323C1548.6 830.573 1496.65 1050.32 1437.65 1128.82C1378.65 1207.32 1304.65 1248.82 1304.65 1248.82L1160.15 1335.32C1160.15 1335.32 935.651 1450.32 944.651 1411.82Z" fill="#4F2D04"/>
<path d="M282 2290.5C322 2061.17 421.6 1603.8 500 1609C598 1615.5 927.5 1557 1070.5 1445.5C1204.9 1401.9 1260.83 1350.83 1251 1323.5C1385.67 1418.33 1606.2 1610.7 1579 1679.5C1633.5 1704.5 1704 1649.5 1774.5 2008.5C1845 2367.5 1817.5 2311 1808.5 2320C1801.3 2327.2 1557.17 2398.67 1436 2433.5L850 2356C677.2 2347.2 399.333 2308.67 282 2290.5Z" fill="#C8D3F8"/>
<path d="M903.848 1454.41L1036.9 1251.07C1036.9 1251.07 1397.35 1273.07 1241.85 1442.57C1086.35 1612.07 1166.6 1626.33 1166.6 1626.33L903.848 1454.41Z" fill="#C8D3F8"/>
<path d="M495 1680.39C537.024 1590.07 573.545 1528.13 795.674 1517.81C1018 1507.48 1296.8 1528.09 1292.96 1539.79C1256.44 1647.32 1162.51 1852.56 1131.87 1860C1084.5 1871.5 925.5 1904 826 1933C657.606 1862.97 632.218 1788.04 605.048 1738.14L495 1680.39Z" fill="#34385B"/>
<path d="M1231 1505.94C1231 1505.94 1258.5 1470.44 1322 1480.94C1385.5 1491.44 1570.96 2012.63 1595.5 2317.44C1595.5 2317.44 1501.23 2374.36 1463.64 2398.87C1462.29 2402.16 1460.58 2404.38 1458.5 2405.44C1441.81 2413.93 1447.51 2409.39 1463.64 2398.87C1486.85 2342.32 1405.09 1969.54 1329.47 1727.96C1294.03 1649.53 1261.13 1576.84 1235.28 1519.94C1233.83 1515.21 1231 1505.94 1231 1505.94Z" fill="#282C4B"/>
<path d="M1293 1526.28V1343C1476.86 1434.64 1807 1628 1731 1865C1647.54 1740.88 1394.66 1568.81 1293 1526.28Z" fill="#282C4B"/>
<path d="M1174.7 1371.15L1330.38 1493.48C1329.55 1493.56 1328.72 1493.65 1327.88 1493.73C1278.88 1499.9 1166.77 1575.53 1166.51 1848.05C1152.39 1859.87 1020.13 1707.92 1006.01 1668.73C995.466 1639.47 886.541 1562.56 829.795 1522.14C782.717 1522.43 769.85 1520.05 818.421 1514.02C969.803 1495.24 1124.89 1412.22 1174.7 1371.15Z" fill="#282C4B"/>
<path d="M1124.24 1157.71C918.628 1152.34 859.265 955.376 850.098 864.61C857.211 789.346 964.736 719.755 976.383 665.61C1005.42 597.54 1016.42 482.808 1122.92 464.895C1243.36 444.637 1298.83 505.994 1351.85 593.37C1404.31 679.833 1348.7 770.107 1378.85 833.726C1409 897.345 1412.57 902.07 1406.86 962.433C1404.89 983.34 1381.24 1164.42 1124.24 1157.71Z" fill="#DFAA84"/>
<path d="M1038 1111.29C1067.41 1135.56 1126.66 1154.31 1185.87 1152.98C1190.36 1152.88 1207.07 1149.98 1209.31 1149.31C1215.25 1147.52 1214.63 1149.42 1209.25 1153.96L1208.64 1200.66L1038.09 1263.78C1047.91 1231.42 1061.63 1155.61 1038 1111.29Z" fill="#DFAA84"/>
<path d="M911.076 965.355C906.949 1016.83 871.471 1055.98 831.834 1052.8C792.196 1049.62 831.192 1010.75 835.32 959.28C839.447 907.807 807.142 863.221 846.78 866.399C886.417 869.577 915.204 913.881 911.076 965.355Z" fill="#DFAA84"/>
<mask id="mask0_30_161" style="mask-type:alpha" maskUnits="userSpaceOnUse" x="847" y="464" width="561" height="699">
<path d="M1125.76 1162.17C920.096 1159.73 857.937 963.632 847.48 873.006C853.523 797.648 960.047 726.534 970.923 672.23C998.985 603.754 1008.35 488.876 1114.59 469.45C1234.73 447.482 1291.07 508.044 1345.32 594.657C1399 680.366 1344.69 771.421 1375.74 834.605C1406.79 897.789 1410.43 902.462 1405.58 962.9C1403.9 983.833 1382.84 1165.23 1125.76 1162.17Z" fill="#E2B5AB"/>
</mask>
<g mask="url(#mask0_30_161)">
<path d="M1482.91 1015.04C1472.21 1061.08 1444.61 1075.31 1397.39 1058.92C1350.17 1042.53 1316.66 1012.16 1333.65 963.218C1357.81 914.973 1380.31 911.142 1428.15 927.75C1471.9 942.942 1489.12 960.563 1482.91 1015.04Z" fill="#E79981"/>
</g>
<path d="M1076.91 1059.04C1066.21 1105.08 1038.61 1119.31 991.39 1102.92C944.173 1086.53 910.655 1056.16 927.646 1007.22C951.806 958.973 974.307 955.142 1022.15 971.75C1065.9 986.942 1083.12 1004.56 1076.91 1059.04Z" fill="#E79981"/>
<path d="M1232.64 946.18C1221.76 944.005 1228.68 944.108 1224.95 933.711C1221.22 923.314 1210.62 919.926 1219.55 909.285C1227.35 906.488 1232.98 919.093 1236.71 929.49C1240.44 939.886 1240.43 943.383 1232.64 946.18Z" fill="#1C1C1C"/>
<path d="M1202.15 999.93C1201.13 988.769 1206.2 988.929 1213.09 990.418C1216.98 991.789 1230.95 993.854 1238.48 992.817C1247.13 991.626 1259.8 979.766 1265.61 976.799C1268.28 975.433 1276.92 979.374 1266 993.911C1257.27 1005.54 1242.86 1010.31 1231.67 1011.76C1220.13 1011.67 1202.89 1008.04 1202.15 999.93Z" fill="#110000"/>
<path d="M986.868 877.3C995.42 860.274 1012.41 847.607 1023.58 855.453C1035.67 861.526 1044.47 901.198 1028.13 912.572C1006.42 924.608 1003.79 917.133 994.854 912.645C985.918 908.157 978.316 894.327 986.868 877.3Z" fill="#110000"/>
<path d="M1318.99 821.754C1317.82 834.125 1312.4 848.753 1302.64 856.369C1288.28 859.531 1269.97 840.725 1268.18 822.475C1269.34 810.104 1285.98 793.522 1298.71 791.711C1314.63 793.217 1320.16 809.383 1318.99 821.754Z" fill="#110000"/>
<path d="M948.882 734.326C906.782 746.158 875.161 793.419 863 814.045C874.945 804.561 899.301 793.431 910.834 786.177C925.252 777.109 990.901 759.159 996.706 759.707C1004.17 760.413 1060.01 754.162 1066.69 752.597C1073.36 751.032 1087.02 744.638 1084.21 721.315C1081.39 697.991 1001.51 719.537 948.882 734.326Z" fill="#110000"/>
<path d="M1335.42 778.896C1348.04 781.881 1347.25 785.216 1344.77 789.33C1342.77 791.477 1334.61 797.115 1330.6 800.784C1326.15 804.857 1318.02 806.652 1318.66 794.728C1320.13 787.046 1326.26 776.729 1335.42 778.896Z" fill="#110000"/>
<path d="M975.945 861.407C983.868 868.298 980.507 876.269 974.254 875.517C968.75 874.529 951.719 868.859 948.14 863.81C943.667 857.501 947.988 854.174 961.427 853.998C966.241 854.862 970.592 856.751 975.945 861.407Z" fill="#110000"/>
<path d="M1047.57 843.741C1049.13 848.738 1043 854.214 1040.32 855.336C1038.06 855.972 1032.11 855.447 1032.01 851.097C1031.88 845.66 1034.57 838.754 1040.82 838.667C1042.79 838.11 1046.52 840.364 1047.57 843.741Z" fill="#110000"/>
<path d="M1249.06 802.604C1251.48 797.964 1255.79 797.991 1258.48 799.084C1260.53 800.224 1266.07 805.35 1263.07 808.507C1259.33 812.452 1255.77 810.677 1252.31 809.649C1250.52 808.651 1247.42 805.739 1249.06 802.604Z" fill="#110000"/>
<mask id="mask1_30_161" style="mask-type:alpha" maskUnits="userSpaceOnUse" x="848" y="460" width="560" height="698">
<path d="M1123.02 1157.33C917.416 1151.96 858.052 955.003 848.885 864.237C855.999 788.973 963.524 719.382 975.17 665.237C1004.2 597.167 1015.2 482.434 1121.71 464.521C1242.15 444.264 1297.62 505.621 1350.63 592.997C1403.09 679.46 1347.49 769.734 1377.64 833.353C1407.78 896.972 1411.36 901.697 1405.65 962.06C1403.68 982.967 1380.03 1164.05 1123.02 1157.33Z" fill="#E2B5AB"/>
</mask>
<g mask="url(#mask1_30_161)">
<path d="M1393.95 692.486C1428.34 711.244 1394.89 691.254 1402.28 721.306C1392.65 706.089 1389.2 703.966 1374.92 702.616C1359.98 701.204 1320.21 716.532 1314.39 715.982C1306.91 715.275 1234.88 738.887 1228.52 737.093C1224.13 735.854 1214.71 732.626 1213.5 723.744C1212.86 719.004 1214.55 712.653 1220.59 704.134C1228.12 693.513 1343.86 665.159 1393.95 692.486Z" fill="#110000"/>
</g>
<mask id="mask2_30_161" style="mask-type:alpha" maskUnits="userSpaceOnUse" x="220" y="1195" width="1088" height="768">
<path fill-rule="evenodd" clip-rule="evenodd" d="M991.658 1740.5C1203.26 1597.3 1289.16 1293.67 1307.66 1195C1185.83 1232.33 958.658 1343.4 918.658 1381C904.344 1394.46 897.652 1409.02 890.91 1423.69C874.101 1460.26 856.979 1497.52 720.658 1520C562.224 1546.13 550.055 1560.47 519.363 1596.64C513.054 1604.07 505.963 1612.43 496.658 1622C479.158 1640 435.658 1742 421.658 1787.5L656.589 1918C702.844 1880.55 722.527 1875.2 750.181 1867.69C787.589 1857.54 839.581 1843.42 991.658 1740.5Z" fill="#773F2D"/>
</mask>
<g mask="url(#mask2_30_161)">
<path d="M489.424 937.838C760.072 847.212 1196.15 789.05 1273.64 1020.47C1351.13 1251.89 1078.8 1596.25 770.044 1775.89C499.396 1866.52 296.351 1870.51 218.86 1639.09C141.369 1407.67 218.776 1028.46 489.424 937.838Z" fill="#4F2D04"/>
</g>
<path d="M1416.5 1718.8C1416.5 1727.27 1412.99 1736.1 1407.15 1742.8C1401.33 1749.48 1393.7 1753.5 1385.77 1753.5C1378.36 1753.5 1371.92 1749.42 1366.41 1742.25C1360.97 1735.18 1357.09 1725.86 1354.92 1717.42C1353.16 1702.71 1357.11 1696.6 1361.49 1693.49C1366.67 1689.82 1374.74 1688.58 1384.79 1688.5C1396.23 1691.63 1404.08 1695.39 1409.07 1700.03C1413.85 1704.48 1416.5 1710.22 1416.5 1718.8Z" fill="white" stroke="#1C1C1C" stroke-width="15"/>
<path d="M1465.54 1909.85C1473.78 1911.77 1481.59 1917.19 1486.8 1924.39C1491.99 1931.57 1494.18 1939.9 1492.39 1947.63C1490.71 1954.85 1485.28 1960.2 1477.05 1963.95C1468.93 1967.65 1458.98 1969.32 1450.27 1969.52C1435.54 1967.91 1430.48 1962.68 1428.45 1957.71C1426.04 1951.84 1426.65 1943.69 1428.85 1933.89C1434.49 1923.45 1439.92 1916.65 1445.57 1912.85C1450.99 1909.2 1457.17 1907.91 1465.54 1909.85Z" fill="white" stroke="#1C1C1C" stroke-width="15"/>
<path d="M1549.5 2212.8C1549.5 2221.27 1545.99 2230.1 1540.15 2236.8C1534.33 2243.48 1526.7 2247.5 1518.77 2247.5C1509.72 2247.5 1503.4 2244.96 1498.88 2241.02C1494.34 2237.06 1490.96 2231.12 1488.89 2223.11C1487.13 2208.35 1490.81 2198.39 1496.27 2192.17C1501.87 2185.8 1510.08 2182.5 1518.77 2182.5C1533.37 2182.5 1540.33 2186.36 1543.98 2190.82C1547.88 2195.6 1549.5 2202.84 1549.5 2212.8Z" fill="white" stroke="#1C1C1C" stroke-width="15"/>
<path d="M1243.22 1543.6C1179.17 1606.9 1166.61 1772.46 1164.48 1836.51L1191.05 1707.57C1204.33 1642.82 1274.2 1512.98 1243.22 1543.6Z" fill="#120F23"/>
<path d="M1672.8 1782.83C1736.8 1830.82 1478.79 1576.63 1450.79 1590.33C1450.79 1590.33 1434.79 1599.83 1467.8 1607.83C1500.8 1615.82 1652.8 1767.83 1672.8 1782.83Z" fill="#120F23"/>
<path d="M1024.21 1673.29C992.457 1643.56 1115.67 1795.16 1132.32 1790.03C1132.32 1790.03 1141.96 1786.23 1124.26 1779.65C1106.55 1773.07 1034.14 1682.59 1024.21 1673.29Z" fill="#120F23"/>
<path d="M1281.3 1396.28C1285.7 1494.6 1293.58 1471.24 1298.65 1441.7C1298.65 1441.7 1309.14 1419.94 1302.16 1374.69C1295.18 1329.45 1278.21 1327.22 1281.3 1396.28Z" fill="#120F23"/>
<path d="M1567.22 2094.01C1642.2 2094.01 1702.29 2019.48 1772.63 2019.48" stroke="#FFEBEB" stroke-width="16" stroke-linecap="round"/>
<path d="M1594.49 2248.52C1647.34 2248.52 1693.67 2226.83 1743.95 2215.4C1754.85 2212.92 1800.01 2192.21 1799.9 2192.17" stroke="#FFEBEB" stroke-width="16" stroke-linecap="round"/>
<path d="M1525.41 1930.41C1577.91 1930.41 1632.86 1935.13 1678.21 1903.95C1694.68 1892.63 1709.75 1875.02 1729 1868.6" stroke="#FFEBEB" stroke-width="16" stroke-linecap="round"/>
<path d="M1483.6 1797.71C1509.54 1797.71 1587.51 1777.12 1601.76 1748.63" stroke="#FFEBEB" stroke-width="16" stroke-linecap="round"/>
<path d="M1349.08 1821.34C1290.69 1821.34 1232.89 1823.16 1174.58 1823.16" stroke="#FFEBEB" stroke-width="16" stroke-linecap="round"/>
<path d="M1381 1936.76C1252.43 1936.76 1123.86 1936.76 995.295 1936.76C952.165 1936.76 835.523 1963.26 866.021 1931" stroke="#FFEBEB" stroke-width="16" stroke-linecap="round"/>
<path d="M764 1925.06C657.731 1925.06 468.087 1964.35 367 1911" stroke="#FFEBEB" stroke-width="16" stroke-linecap="round"/>
<path d="M1419 2114.43C1118.59 2114.43 818.176 2114.43 517.764 2114.43C455.467 2114.43 380.119 2120.63 326 2092" stroke="#FFEBEB" stroke-width="16" stroke-linecap="round"/>
<path d="M1451.03 2259.96C1194.4 2259.96 918.654 2222.2 667.812 2287.72C617.726 2300.81 542.162 2321.62 490.398 2321.62" stroke="#FFEBEB" stroke-width="16" stroke-linecap="round"/>
<path d="M1226.81 1309.6C1247.14 1313.66 1261.1 1342.37 1276.82 1350.23" stroke="#606060" stroke-width="16" stroke-linecap="round"/>
<path d="M690.972 1851.03C717.466 1880.47 755.807 1903.78 793.968 1915.7C809.164 1920.45 828.223 1939.95 843.264 1933.01C864.548 1923.19 886.564 1915.36 907.858 1906.05C945.793 1889.45 1010.45 1888 1051.19 1885.8C1086.51 1883.89 1113.11 1852.42 1148.54 1852.42" stroke="#606060" stroke-width="16" stroke-linecap="round"/>
<path d="M691.391 1852.39C690.109 1852.23 690.47 1851.94 690 1851" stroke="#606060" stroke-width="16" stroke-linecap="round"/>
<path d="M1574 1730C1574 1775.92 1607.63 1813.24 1622.56 1855.52C1644.73 1918.36 1668.6 1980.62 1687.5 2044.94C1710.02 2121.61 1743.76 2194.87 1763.41 2272.39C1765.71 2281.44 1778.1 2354.29 1785.06 2357.77" stroke="#606060" stroke-width="16" stroke-linecap="round"/>
<path d="M1208 1772C1208 1995.63 1329.77 2214.41 1329.77 2437.66" stroke="#606060" stroke-width="16" stroke-linecap="round"/>
<path d="M1010.4 1894.41C1010.4 2060.13 1034.75 2221.05 1034.75 2386.89" stroke="#606060" stroke-width="16" stroke-linecap="round"/>
<path d="M813 1970.41C813 1824.29 813 2262.65 813 2408.77" stroke="#606060" stroke-width="16" stroke-linecap="round"/>
<path d="M568.059 1837C568.059 1999.57 541 2161.34 541 2321.36" stroke="#606060" stroke-width="16" stroke-linecap="round"/>
<path d="M418 1818C418 1992.67 420.706 2167.26 420.706 2340.24" stroke="#606060" stroke-width="16" stroke-linecap="round"/>
<path d="M842.76 1935.72C859.696 1935.72 873.967 1936.94 883.777 1919.77C889.048 1910.55 864.919 1931.88 854.296 1931.88" stroke="#606060" stroke-width="16" stroke-linecap="round"/>
<path d="M865.832 1929.31C904.479 1929.31 937.466 1895.91 977.277 1890.93C1008.53 1887.02 1034.96 1887.29 1065.79 1878.04" stroke="#606060" stroke-width="16" stroke-linecap="round"/>
<path d="M692.79 1856.25C692.79 1840.32 640.062 1821.79 640.521 1821.93C656.861 1826.96 671.535 1833.64 685.811 1842.72C695.323 1848.77 701.215 1862.91 712.017 1866.51" stroke="#606060" stroke-width="16" stroke-linecap="round"/>
<path d="M720.989 1871.63C690.597 1871.63 660.51 1848.18 639.738 1827.41C628.175 1815.85 692.494 1847.15 698.558 1849.84C747.833 1871.74 786.294 1906.65 838.915 1924.19" stroke="#606060" stroke-width="16" stroke-linecap="round"/>
<path d="M760.725 1897.27C744.943 1891.81 732.333 1880.41 720.989 1869.07" stroke="#606060" stroke-width="16" stroke-linecap="round"/>
<path d="M787.643 1901.11C809.21 1901.11 827.933 1911.37 849.81 1911.37C859.945 1911.37 894.438 1910.09 892.75 1910.09" stroke="#606060" stroke-width="16" stroke-linecap="round"/>
<path d="M826.097 1917.78C829.631 1917.78 849.877 1920.21 851.733 1916.5" stroke="#606060" stroke-width="16" stroke-linecap="round"/>
<path d="M762.007 1883.17C790.696 1883.17 822.67 1893.46 850.451 1900.4C888.273 1909.86 941.663 1889.05 979.342 1882.88C1011.88 1877.56 1044.17 1877.46 1076.62 1871.56C1105.42 1866.32 1133.06 1851.77 1161.93 1846" stroke="#606060" stroke-width="16" stroke-linecap="round"/>
<path d="M786.468 1886.06C757.087 1886.06 732.369 1881.58 706.393 1866.33C696.813 1860.71 737.167 1868.68 747.022 1870.47C755.208 1871.96 763.472 1875.63 771.557 1876.79C779.933 1877.98 825.098 1902.07 825.519 1899.55" stroke="#606060" stroke-width="16" stroke-linecap="round"/>
<path d="M656.533 1828.54C650.823 1828.54 644.596 1829.56 639.651 1826.57C636.593 1824.72 627.461 1817.18 635.233 1817.18C659.461 1817.18 667.543 1825.83 680.674 1847.71" stroke="#606060" stroke-width="16" stroke-linecap="round"/>
<path d="M638.073 1815.05C673.707 1815.05 708.193 1841.9 739.29 1858.36C750.911 1864.52 767.525 1867.18 777.592 1875.01C787.261 1882.53 827.42 1893.89 830.489 1903.1" stroke="#606060" stroke-width="16" stroke-linecap="round"/>
<path d="M628.419 1822.17C635.087 1822.54 642.372 1832.24 647.562 1835.79C657.486 1842.59 666.979 1850.66 676.613 1857.95C696.798 1873.23 716.635 1892.67 740.101 1902.97C758.583 1911.08 778.092 1920.42 798.107 1924.2C806.581 1925.8 815.022 1927.99 823.631 1928.81C829.664 1929.39 849.323 1933.37 843.126 1925.48" stroke="#606060" stroke-width="16" stroke-linecap="round"/>
<path d="M719.612 1883.35C730.143 1898.21 755.666 1907.64 770.628 1917.11C782.912 1924.88 797.961 1937.13 812.857 1939.04C829.632 1941.19 857.619 1936.33 866.791 1920.28" stroke="#606060" stroke-width="16" stroke-linecap="round"/>
<path d="M485.022 1634.34C485.022 1587.51 567.601 1551.43 604.362 1543.26C652.004 1532.68 699.85 1518.23 748.738 1513.34C788.66 1509.35 842.147 1490.29 867.292 1457.77C890.813 1427.36 905.922 1373.13 946.677 1359.54" stroke="#1C1C1C" stroke-width="16" stroke-linecap="round"/>
<path d="M538.411 1761.53C601.355 1761.53 656.931 1746.79 710.965 1713.64C725.723 1704.58 802.214 1666.93 802.214 1654.75" stroke="#1C1C1C" stroke-width="16" stroke-linecap="round"/>
<path d="M893.288 1678.31C921.765 1676.81 958.824 1630.68 978.082 1614.27C1014.58 1583.18 1036.52 1539.79 1069.85 1506.45C1128.16 1448.15 1180.3 1374.36 1216.76 1301.44" stroke="#1C1C1C" stroke-width="16" stroke-linecap="round"/>
<path d="M1223.04 367.144C1173.86 367.144 1119.17 364.583 1074.74 389.825C1037.32 411.085 1003.54 438.005 964.822 456.997C881.136 498.051 809.91 564.096 764.877 646.3C728.612 712.497 698.944 775.69 687.585 851.305C678.252 913.441 669.672 1002.92 706.428 1058.06" stroke="#1C1C1C" stroke-width="16" stroke-linecap="round"/>
<path d="M1416.23 1046.17C1418.11 1010.42 1444.9 970.546 1452.04 934.452C1457.63 906.186 1461.47 878.297 1460.55 849.393C1459.69 822.094 1431.47 791.494 1420.53 766.879" stroke="#1C1C1C" stroke-width="11" stroke-linecap="round"/>
<path d="M801.799 1054.76C801.799 1099.92 878.571 1134.25 909.217 1157.09C931.533 1173.71 962.184 1188.64 977.965 1212.31" stroke="#1C1C1C" stroke-width="11" stroke-linecap="round"/>
<path d="M1283.69 1172.12C927.385 1302 827.001 972.31 857.234 804L726 1011.82L982.5 1360C1175.38 1247.07 1640 1042.23 1283.69 1172.12Z" fill="#4F2D04"/>
<path d="M882.275 1021.06C882.872 1016.6 895.56 1020 897.009 1022.94C900.74 1035.52 906.278 1089.46 892.628 1064.81C886.989 1054.62 880.732 1032.58 882.275 1021.06Z" stroke="#FFDA56" stroke-width="11" stroke-linecap="round"/>
<path d="M736.171 345C736.171 350.998 747.489 357.597 750.146 362.469C752.073 366.001 752.814 370.068 754.822 373.548C759.056 380.886 740.205 363.539 736.522 355.91C733.079 348.778 747.612 367.245 752.653 373.353C756.287 377.756 750.722 380.219 746.432 380.301C742.145 380.383 740.138 383.436 741.912 388.25C741.97 388.407 744.674 385.504 745.003 385.211C745.853 384.454 747.019 384.463 746.458 383.34" stroke="#9468CB" stroke-width="11" stroke-linecap="round"/>
<path d="M579.079 1298.08C579.079 1294.08 579.079 1290.08 579.079 1286.09C579.079 1277.71 581.648 1299.33 581.78 1300.16C582.932 1307.46 582.426 1319.23 589.346 1324.08C590.484 1324.88 597.275 1329.52 596.261 1328.67" stroke="#9468CB" stroke-width="11" stroke-linecap="round"/>
<path d="M727.619 433.736C727.619 426.684 738.078 413.919 742.451 409.188C748.378 402.776 755.671 394.846 763.115 390.278C768.799 386.79 774.972 381.977 781.817 381.121C782.338 381.056 773.127 374.609 771.778 374.095C769.357 373.172 766.779 372.635 764.479 371.419C761.999 370.109 769.411 374.091 771.908 375.368C775.826 377.372 778.881 378.763 782.973 379.914C783.714 380.122 786.94 380.086 786.194 379.797C778.398 376.771 770.302 374.56 762.076 373.069C755.058 371.796 747.438 371.559 741.191 367.744C733.919 363.302 728.925 355.126 722.709 349.392C719.797 346.705 716.469 343.846 714.657 340.222C713.651 338.212 702.994 350.456 701.253 352.197C694.383 359.068 687.018 370.427 686.018 380.42C685.607 384.534 692.28 386.753 695.266 388.382C702.456 392.303 708.909 398.184 716.059 401.759C720.911 404.185 719.44 402.942 716.917 398.058C711.001 386.608 707.523 372.679 699.695 362.354C697 358.8 700.328 365.916 700.591 366.458C702.966 371.365 704.583 375.522 705.305 380.784C705.903 385.136 702.248 377.664 701.175 376.355C695.761 369.752 705.897 385.761 706.253 386.356C707.421 388.304 718.78 409.047 717.8 408.487" stroke="#9468CB" stroke-width="11" stroke-linecap="round"/>
<path d="M526.485 1335.79C534.591 1335.79 540.956 1337.95 548.65 1339.23C552.865 1339.93 557.75 1330.78 559.534 1327.9C561.821 1324.21 562.85 1319.96 564.051 1325.92C565.044 1330.86 566.061 1335.79 567.066 1340.72C567.713 1343.89 567.511 1339.88 567.625 1338.79C568.334 1331.92 569.601 1325.16 571.152 1318.44C572.523 1312.5 572.472 1316.91 572.793 1320.55C573.676 1330.54 574.024 1340.59 575.214 1350.56C575.598 1353.77 575.131 1341.68 575.098 1340.89C575.015 1338.89 573.427 1312.49 574.935 1325.76C575.823 1333.58 577.478 1341.86 576.984 1349.76C576.862 1351.72 572.201 1349.75 571.303 1349.37C569.74 1348.71 567.485 1347.45 567.485 1345.43C567.485 1343.1 579.056 1350.64 579.312 1350.82C582.542 1353.19 584.974 1355.87 587.845 1358.54C588.184 1358.86 588.142 1357.65 588.182 1357.19C588.466 1353.95 588.842 1350.72 589.312 1347.51C589.999 1342.79 590.206 1335.86 592.571 1331.55C594.921 1327.26 594.126 1341.22 594.282 1346.11C594.58 1355.42 591.007 1366 592.513 1375.04C593.357 1380.1 594.843 1372.88 595.621 1371.37C599 1364.8 604.334 1358.99 609.346 1353.63C613.989 1348.66 621.413 1345.12 624.502 1338.94C627.594 1332.75 613.928 1330.77 609.811 1329.23C606.906 1328.14 603.321 1326.24 600.173 1326.16C596.875 1326.07 599.051 1339.66 599.579 1341.6C599.745 1342.21 605.188 1354.19 606.831 1351.95C609.207 1348.71 607.927 1345.25 605.516 1342.71C600.539 1337.46 594.926 1333.28 589.486 1328.58C585.05 1324.74 583.292 1325.09 578.078 1323.08C573.021 1321.14 569.103 1316.6 571.419 1310.95C571.947 1309.67 575.656 1301.85 576.332 1304.39C576.435 1304.77 576.313 1303.51 576.029 1303.22C574.923 1302.12 578.682 1301.25 579.498 1301.01" stroke="#9468CB" stroke-width="11" stroke-linecap="round"/>
<path d="M526 1340.07C559.585 1340.07 564.086 1317.4 572.298 1292.06C577.984 1274.52 578.977 1256.83 580.203 1238.9C581.183 1224.56 585.069 1267.37 585.285 1281.74C585.477 1294.59 585.073 1319.21 600.404 1325.61C622.903 1335 634.154 1334.39 658.684 1334.39C666.364 1334.39 643.109 1336.76 636.664 1340.58C629.158 1345.03 624.147 1349.12 618.722 1355.55C604.062 1372.92 595.485 1395.09 590.68 1416.43C589.305 1422.54 589.237 1429.28 589.237 1435.5C589.237 1438.67 587.771 1447.12 589.55 1439.69C594.244 1420.07 592.457 1400.43 588.076 1381.07C584.025 1363.17 564.171 1347.43 544.883 1344.22C540.623 1343.52 550.611 1344.71 551.972 1344.71C559.392 1344.71 565.348 1342.32 570.761 1337.51C576.204 1332.68 580.768 1327.42 580.768 1320.25C580.768 1303.68 581.477 1355.29 591.746 1368.94C597.075 1376.03 596.306 1363.46 598.051 1358.3C599.379 1354.38 600.448 1347.99 605.171 1346.26C607.862 1345.28 620.068 1342.13 611.853 1342.13C583.654 1342.13 590.275 1328.33 577.38 1310.64" stroke="#9468CB" stroke-width="11" stroke-linecap="round"/>
<path d="M1528.5 1271.76V1414.51" stroke="#9468CB" stroke-width="11" stroke-linecap="round"/>
<path d="M1480.29 1390.17C1484.09 1372.8 1514.13 1348.25 1526.7 1334.91C1539.47 1321.35 1557.79 1296.19 1575.27 1288.2" stroke="#9468CB" stroke-width="11" stroke-linecap="round"/>
<path d="M1475.97 1296.1C1503.11 1304.9 1527.48 1334 1549.21 1350.7C1556.07 1355.97 1591.39 1377.18 1569.52 1369.78" stroke="#9468CB" stroke-width="11" stroke-linecap="round"/>
<path d="M1463.74 1332.94C1502.59 1332.94 1544.33 1335.38 1582.79 1329.32C1587.59 1328.56 1622.44 1329.5 1622.76 1328.33" stroke="#9468CB" stroke-width="11" stroke-linecap="round"/>
<path d="M1624.17 1275.36C1718.31 1275.36 1761.38 1198.65 1780.88 1123.6C1791.54 1082.56 1784.12 1060.46 1735.12 1060.46C1712.83 1060.46 1701.42 1077.39 1695.64 1094.29C1672.06 1163.28 1760.45 1179.44 1806.23 1141.77C1848.5 1107 1867.7 1053.13 1867.7 1002.81C1867.7 977.903 1849.25 936.746 1820.06 927.849" stroke="#9468CB" stroke-width="11" stroke-linecap="round"/>
<path d="M1568 653.408C1576.19 653.408 1586.73 651.727 1594.69 653.682C1605.71 656.387 1617.49 670.574 1624.43 678.152C1642.07 697.426 1653.09 716.641 1653.74 742.1C1653.93 749.588 1653.83 757.118 1653.76 764.609C1653.73 768.078 1654.54 780.281 1651.97 771.565C1646.57 753.248 1653.4 733.303 1657.13 715.212C1663.16 685.985 1683.91 670.26 1713.29 659.976C1719.58 657.773 1739.51 655.05 1732.77 655.05C1725.26 655.05 1714.45 648.96 1707.42 646.452C1696.09 642.409 1684.11 641.267 1673.42 635.756C1662.61 630.184 1658.98 618.538 1654.21 608.8C1647.11 594.284 1642.09 575.364 1642.09 559.402C1642.09 552.418 1642.36 573.436 1641.19 580.338C1636.41 608.629 1625.64 653.408 1586.86 653.408" stroke="#9468CB" stroke-width="11" stroke-linecap="round"/>
<path d="M1643.41 570.748C1643.41 557.868 1638.99 519.402 1640.74 532.183C1642.29 543.492 1643.41 554.251 1643.41 565.822" stroke="#9468CB" stroke-width="11" stroke-linecap="round"/>
<path d="M1775.86 476.945C1775.86 505.055 1779.67 532.904 1779.67 560.912C1779.67 572.271 1780.98 583.551 1781.31 594.853C1781.4 597.886 1783.45 614.724 1780.22 612.265" stroke="#9468CB" stroke-width="11" stroke-linecap="round"/>
<path d="M1731.79 591.37C1751.62 571.938 1768.68 550.41 1788.62 530.924C1790.09 529.491 1814.1 505.996 1812.87 504.308" stroke="#9468CB" stroke-width="11" stroke-linecap="round"/>
<path d="M1733.96 511.273C1754.4 516.828 1776.41 538.618 1794.64 549.359C1805.17 555.565 1817.05 561.858 1825.93 569.978" stroke="#9468CB" stroke-width="11" stroke-linecap="round"/>
<path d="M1717.09 548.586C1745.28 548.586 1771.73 545.255 1799.57 541.621C1807.89 540.534 1843.68 536.799 1843.34 536.646" stroke="#9468CB" stroke-width="11" stroke-linecap="round"/>
<path d="M467 606.618C470.696 606.618 475.456 605.462 479.049 606.806C484.024 608.667 489.341 618.424 492.473 623.636C500.438 636.892 505.412 650.108 505.705 667.617C505.791 672.768 505.746 677.946 505.716 683.098C505.702 685.484 506.064 693.877 504.905 687.882C502.47 675.285 505.553 661.567 507.236 649.125C509.955 629.023 519.326 618.209 532.585 611.136C535.426 609.62 544.422 607.748 541.38 607.748C537.99 607.748 533.112 603.559 529.939 601.834C524.822 599.053 519.416 598.268 514.59 594.478C509.71 590.646 508.069 582.636 505.919 575.938C502.714 565.955 500.446 552.943 500.446 541.964C500.446 537.161 500.567 551.616 500.04 556.363C497.881 575.821 493.02 606.618 475.513 606.618" stroke="#9468CB" stroke-width="11" stroke-linecap="round"/>
<path d="M1371.07 371.532C1371.07 347.035 1377.3 316.287 1368.8 293" stroke="#9468CB" stroke-width="11" stroke-linecap="round"/>
<path d="M1412.89 384.966C1434.96 373.282 1468.07 351.232 1479.57 330.2" stroke="#9468CB" stroke-width="11" stroke-linecap="round"/>
<path d="M726.736 516.854C726.736 492.806 724.195 465.936 731.844 442.626C737.059 426.733 759.499 403.628 774.63 393.626C782.42 388.477 792.604 384.335 801.926 382.316C807.239 381.166 820.473 381.999 808.095 379.587C781.031 374.314 765.217 370.948 751.247 347.658C738.321 326.11 732.661 291.342 729.389 267.063C725.668 239.445 731.43 276.342 729.091 286.499C720.434 324.092 700.624 359.299 664.779 379.86C661.495 381.744 629.236 388.233 645.609 389.169C663.138 390.17 681.254 390.806 696.421 399.63C710.97 408.094 720.189 425.925 723.784 440.716C725.415 447.426 724.945 455.089 724.945 462.032C724.945 464.249 726.824 472.769 724.945 467.187C717.744 445.791 723.154 416.769 723.154 394.718C723.154 370.078 739.289 298.476 728.228 320.945C721.4 334.817 715.482 355.071 704.68 366.428C699.881 371.472 689.967 370.028 685.078 375.615C683.927 376.93 707.642 390.276 709.688 392.413C713.405 396.297 709.369 382.158 709.423 378.89C709.61 367.476 717.097 364.784 707.035 369.915C704.579 371.167 678.046 378.355 678.046 380.83C678.046 383.976 684.985 381.327 688.229 382.377C692.572 383.782 696.89 385.917 700.467 388.593C703.292 390.705 710.754 392.254 712.408 394.9C715.324 399.566 715.856 398.496 715.525 393.808C714.301 376.455 722.097 358.023 724.812 340.745C725.84 334.205 734.807 303.294 732.408 308.119C726.084 320.837 738.61 337.813 742.524 349.569C745.713 359.148 751.866 362.651 757.781 370.46C767.394 383.154 772.21 377.142 753.668 387.501C744.232 392.773 730.794 402.543 731.512 413.699C731.873 419.308 740.499 406.029 744.845 402.056C747.415 399.706 751.844 398.595 754.066 396.112C759.963 389.523 730.915 369.607 730.915 362.182C730.915 348.331 729.721 417.575 729.721 403.723C729.721 389.208 735.094 345.938 735.094 360.454C735.094 377.495 737.618 396.035 734.033 412.789C732.96 417.802 730.915 423.351 730.915 428.435" stroke="#9468CB" stroke-width="11" stroke-linecap="round"/>
<path d="M376.565 840.985C376.565 827.355 375.633 812.817 380.406 799.728" stroke="#9468CB" stroke-width="11" stroke-linecap="round"/>
<path d="M395.769 763.298C395.769 755.108 399.217 747.257 402.01 739.597" stroke="#9468CB" stroke-width="11" stroke-linecap="round"/>
<path d="M437.537 699.217C439.818 697.187 446.007 690 449.54 690" stroke="#9468CB" stroke-width="11" stroke-linecap="round"/>
<path d="M386.167 897.605C390.293 903.315 394.648 908.821 399.129 914.283" stroke="#9468CB" stroke-width="11" stroke-linecap="round"/>
<path d="M443.299 941.935H464.904" stroke="#9468CB" stroke-width="11" stroke-linecap="round"/>
<path d="M500.911 915.161C506.079 914.302 504.426 905.952 506.672 902.872" stroke="#9468CB" stroke-width="11" stroke-linecap="round"/>
<path d="M487.468 855.908C494.278 855.908 499.288 858.465 503.312 863.37" stroke="#9468CB" stroke-width="11" stroke-linecap="round"/>
<path d="M427.936 854.153C432.421 852.156 435.565 851.08 440.418 851.08" stroke="#9468CB" stroke-width="11" stroke-linecap="round"/>
<path d="M362.642 920.867C358.876 927.145 354 935.926 354 943.251" stroke="#9468CB" stroke-width="11" stroke-linecap="round"/>
<path d="M361.202 1011.72C367.373 1023.54 376.552 1033.38 387.127 1042.01" stroke="#9468CB" stroke-width="11" stroke-linecap="round"/>
<path d="M441.859 1072.73C445.45 1076.99 450.067 1080.49 454.342 1084.14" stroke="#9468CB" stroke-width="11" stroke-linecap="round"/>
<path d="M502.352 1106.09C506.57 1109.52 511.57 1112.45 516.755 1114.43" stroke="#9468CB" stroke-width="11" stroke-linecap="round"/>
<path d="M1468.74 418.531C1485.99 414.266 1509.3 401.01 1527.07 401.01" stroke="#9468CB" stroke-width="11" stroke-linecap="round"/>
<path d="M723.851 1375.53C723.851 1388.21 751.696 1368.65 737.047 1365.67C726.561 1363.54 725.403 1372.52 725.403 1379.79" stroke="#9468CB" stroke-width="11" stroke-linecap="round"/>
</g>
<defs>
<clipPath id="clip0_30_161">
<rect width="2320" height="2320" fill="white"/>
</clipPath>
</defs>
</svg>
