<svg  viewBox="0 0 1559 649" fill="none" xmlns="http://www.w3.org/2000/svg">
<path d="M1212.24 546.972C1218.89 534.685 1239.9 493.666 1246.46 475.43L1235.22 460C1235.72 462.806 1238.93 474.028 1234.72 486.653C1231.91 493.666 1210.6 539.169 1190.93 561.613C1175.2 579.568 1170.32 581.913 1173.13 587.524C1174.79 590.837 1189.33 599.151 1209.43 586.249C1229.1 573.624 1237.53 570.819 1244.55 572.221C1251.57 573.624 1254.38 579.235 1251.57 591.86C1246.91 612.807 1222.55 627.425 1203.81 631.138C1161.6 639.5 1182.1 614.5 1172.1 607C1163.22 600.341 1142 605 1142 624.124C1142 642.51 1158.86 646.568 1158.86 646.568C1171.5 652.179 1193.55 647.544 1215.05 638.152C1238.93 627.719 1251.11 612.434 1255.79 601.68C1259.07 596.069 1264.22 580.638 1258.6 568.013C1250.48 549.777 1228.1 562.196 1216.45 568.013C1207.46 572.502 1203.81 573.624 1201 570.819C1199.13 568.948 1205.39 559.613 1212.24 546.972Z" />
<path d="M1268.83 447H1225V455.04C1244.18 455.04 1230.74 486.831 1243.44 475.451L1280.11 593.521C1289.14 623.11 1273.11 637.641 1267.47 640.96L1267.42 649H1345V640.96C1334.84 640.96 1326.66 623.394 1323.84 614.859L1268.83 447Z" />
<path d="M997.324 648H977V448.711H1054.95C1097.27 448.711 1120.38 468.501 1120.38 505.014C1120.38 531.493 1105.07 549.61 1083.35 555.184V555.742C1129.01 564.94 1113.14 642.983 1124 646.328V648H1102.28C1093.1 639.638 1111.19 565.219 1058.02 565.219H997.324V648ZM997.324 547.38H1049.94C1081.68 547.38 1100.06 533.165 1100.06 505.293C1100.06 479.929 1085.58 466.55 1051.34 466.55H997.324V547.38Z" />
<rect x="782" y="648" width="14" height="14" transform="rotate(-180 782 648)" />
<rect x="782" y="466" width="14" height="14" transform="rotate(-180 782 466)" />
<rect x="796" y="648" width="14" height="14" transform="rotate(-180 796 648)" />
<rect x="810" y="648" width="14" height="14" transform="rotate(-180 810 648)" />
<rect x="796" y="634" width="14" height="14" transform="rotate(-180 796 634)" />
<rect x="810" y="634" width="14" height="14" transform="rotate(-180 810 634)" />
<rect x="796" y="620" width="14" height="14" transform="rotate(-180 796 620)" />
<rect x="810" y="620" width="14" height="14" transform="rotate(-180 810 620)" />
<rect x="796" y="606" width="14" height="14" transform="rotate(-180 796 606)" />
<rect x="810" y="606" width="14" height="14" transform="rotate(-180 810 606)" />
<rect x="796" y="592" width="14" height="14" transform="rotate(-180 796 592)" />
<rect x="810" y="592" width="14" height="14" transform="rotate(-180 810 592)" />
<rect x="796" y="578" width="14" height="14" transform="rotate(-180 796 578)" />
<rect x="810" y="578" width="14" height="14" transform="rotate(-180 810 578)" />
<rect x="796" y="564" width="14" height="14" transform="rotate(-180 796 564)" />
<rect x="810" y="564" width="14" height="14" transform="rotate(-180 810 564)" />
<rect x="796" y="550" width="14" height="14" transform="rotate(-180 796 550)" />
<rect x="810" y="550" width="14" height="14" transform="rotate(-180 810 550)" />
<rect x="796" y="536" width="14" height="14" transform="rotate(-180 796 536)" />
<rect x="810" y="536" width="14" height="14" transform="rotate(-180 810 536)" />
<rect x="796" y="522" width="14" height="14" transform="rotate(-180 796 522)" />
<rect x="810" y="522" width="14" height="14" transform="rotate(-180 810 522)" />
<rect x="796" y="508" width="14" height="14" transform="rotate(-180 796 508)" />
<rect x="810" y="508" width="14" height="14" transform="rotate(-180 810 508)" />
<rect x="796" y="494" width="14" height="14" transform="rotate(-180 796 494)" />
<rect x="810" y="494" width="14" height="14" transform="rotate(-180 810 494)" />
<rect x="796" y="480" width="14" height="14" transform="rotate(-180 796 480)" />
<rect x="810" y="480" width="14" height="14" transform="rotate(-180 810 480)" />
<rect x="796" y="466" width="14" height="14" transform="rotate(-180 796 466)" />
<rect x="810" y="466" width="14" height="14" transform="rotate(-180 810 466)" />
<rect x="824" y="648" width="14" height="14" transform="rotate(-180 824 648)" />
<rect x="838" y="648" width="14" height="14" transform="rotate(-180 838 648)" />
<rect x="936" y="648" width="14" height="14" transform="rotate(-180 936 648)" />
<rect x="950" y="648" width="14" height="14" transform="rotate(-180 950 648)" />
<rect x="908" y="648" width="14" height="14" transform="rotate(-180 908 648)" />
<rect x="922" y="648" width="14" height="14" transform="rotate(-180 922 648)" />
<rect x="894" y="634" width="14" height="14" transform="rotate(-180 894 634)" />
<rect x="908" y="634" width="14" height="14" transform="rotate(-180 908 634)" />
<rect x="922" y="634" width="14" height="14" transform="rotate(-180 922 634)" />
<rect x="880" y="620" width="14" height="14" transform="rotate(-180 880 620)" />
<rect x="894" y="620" width="14" height="14" transform="rotate(-180 894 620)" />
<rect x="908" y="620" width="14" height="14" transform="rotate(-180 908 620)" />
<rect x="866" y="606" width="14" height="14" transform="rotate(-180 866 606)" />
<rect x="880" y="606" width="14" height="14" transform="rotate(-180 880 606)" />
<rect x="894" y="606" width="14" height="14" transform="rotate(-180 894 606)" />
<rect x="852" y="592" width="14" height="14" transform="rotate(-180 852 592)" />
<rect x="866" y="592" width="14" height="14" transform="rotate(-180 866 592)" />
<rect x="880" y="592" width="14" height="14" transform="rotate(-180 880 592)" />
<rect x="838" y="578" width="14" height="14" transform="rotate(-180 838 578)" />
<rect x="852" y="578" width="14" height="14" transform="rotate(-180 852 578)" />
<rect x="866" y="578" width="14" height="14" transform="rotate(-180 866 578)" />
<rect x="824" y="564" width="14" height="14" transform="rotate(-180 824 564)" />
<rect x="838" y="564" width="14" height="14" transform="rotate(-180 838 564)" />
<rect x="838" y="550" width="14" height="14" transform="rotate(-180 838 550)" />
<rect x="852" y="536" width="14" height="14" transform="rotate(-180 852 536)" />
<rect x="866" y="522" width="14" height="14" transform="rotate(-180 866 522)" />
<rect x="880" y="508" width="14" height="14" transform="rotate(-180 880 508)" />
<rect x="894" y="494" width="14" height="14" transform="rotate(-180 894 494)" />
<rect x="894" y="480" width="14" height="14" transform="rotate(-180 894 480)" />
<rect x="880" y="494" width="14" height="14" transform="rotate(-180 880 494)" />
<rect x="908" y="480" width="14" height="14" transform="rotate(-180 908 480)" />
<rect x="852" y="564" width="14" height="14" transform="rotate(-180 852 564)" />
<rect x="824" y="466" width="14" height="14" transform="rotate(-180 824 466)" />
<rect x="838" y="466" width="14" height="14" transform="rotate(-180 838 466)" />
<rect x="922" y="466" width="14" height="14" transform="rotate(-180 922 466)" />
<rect x="936" y="466" width="14" height="14" transform="rotate(-180 936 466)" />
<rect x="950" y="466" width="14" height="14" transform="rotate(-180 950 466)" />
<rect x="880" y="466" width="14" height="14" transform="rotate(-180 880 466)" />
<rect x="894" y="466" width="14" height="14" transform="rotate(-180 894 466)" />
<rect x="908" y="466" width="14" height="14" transform="rotate(-180 908 466)" />
<path d="M1386.51 649H1366V448H1394.37L1462.08 621.45H1462.64L1530.63 448H1559V649H1538.49V476.955H1537.93L1471.63 649H1453.09L1387.07 476.955H1386.51V649Z" />
<path d="M714 447C711.069 455.145 709.365 463.334 708.89 471.567C708.414 479.712 708.058 486.718 707.82 492.586C707.583 498.454 707.385 504.541 707.226 510.847C706.988 525.561 706.87 538.961 706.87 551.047C706.87 600.618 708.533 631.009 711.861 642.22C712.415 644.146 713.129 646.073 714 648H673C675.456 642.044 676.922 636.658 677.397 631.841C677.872 627.024 678.308 621.288 678.704 614.631C679.655 600.881 680.13 585.029 680.13 567.075C680.13 549.12 680.091 536.859 680.012 530.29C679.932 523.634 679.814 517.153 679.655 510.847C679.1 480.106 677.437 460.575 674.664 452.255L673 447H714Z" />
<path d="M412.877 378.402C410.685 378.402 409.09 378.103 408.093 377.505C406.897 376.907 406.199 375.81 406 374.215C406 372.421 406.897 371.125 408.691 370.327C410.485 369.33 412.778 368.533 415.569 367.935C420.552 366.539 425.436 364.845 430.221 362.851C435.005 360.658 439.49 358.166 443.677 355.374C448.062 352.384 451.85 349.094 455.039 345.505C469.193 329.755 482.45 314.403 494.809 299.45C507.169 284.497 519.229 269.644 530.991 254.89C542.752 239.937 554.713 224.984 566.873 210.031C569.664 206.642 572.056 203.452 574.05 200.462C576.043 197.471 577.738 195.079 579.133 193.284C586.236 184.15 600.302 174.281 612.324 175.042C613.72 175.042 614.617 176.138 615.016 178.331C615.414 180.325 615.115 183.415 614.118 187.602L583.618 341.319C581.824 349.892 581.924 356.172 583.917 360.159C586.11 364.147 590.296 366.938 596.476 368.533C599.466 369.33 601.659 370.128 603.055 370.925C604.649 371.524 605.447 372.62 605.447 374.215C605.447 375.611 604.649 376.608 603.055 377.206C601.46 377.804 599.167 378.103 596.177 378.103C593.187 378.103 589.399 377.903 584.814 377.505C580.229 377.305 575.445 377.106 570.461 376.907C565.677 376.707 561.092 376.608 556.706 376.608C553.118 376.608 549.131 376.608 544.746 376.608C540.559 376.608 536.373 376.707 532.187 376.907C528.2 377.106 524.811 377.206 522.02 377.206C517.834 377.206 515.541 375.91 515.143 373.318C515.143 371.723 515.94 370.427 517.535 369.43C519.13 368.234 521.123 367.436 523.515 367.038C529.496 366.041 534.28 364.845 537.868 363.449C541.456 361.854 544.247 359.661 546.241 356.87C548.434 353.879 550.128 349.792 551.324 344.608L560.594 308.721C561.192 306.329 560.693 304.534 559.099 303.338C557.703 302.142 555.71 301.544 553.118 301.544L515.442 302.142C512.651 302.142 510.358 302.54 508.564 303.338C506.969 304.135 505.474 305.531 504.079 307.525L476.868 343.113C472.881 348.297 470.588 352.483 469.99 355.673C469.592 358.863 470.289 361.256 472.084 362.851C474.077 364.446 476.669 365.742 479.858 366.739C481.852 367.337 483.546 368.234 484.941 369.43C486.536 370.427 487.334 371.723 487.334 373.318C487.334 374.713 486.437 375.71 484.642 376.308C483.048 376.907 481.054 377.206 478.662 377.206C474.874 377.206 470.688 377.106 466.103 376.907C461.718 376.707 456.834 376.608 451.451 376.608C445.271 376.608 438.593 376.907 431.417 377.505C424.24 378.103 418.061 378.402 412.877 378.402ZM525.01 290.777L558.501 290.478C560.494 290.478 561.989 289.98 562.986 288.983C564.182 287.986 565.079 286.192 565.677 283.6L580.03 218.106C580.429 216.112 580.628 214.617 580.628 213.62C580.628 212.424 580.13 211.826 579.133 211.826C578.535 211.826 577.738 212.025 576.741 212.424C575.943 212.823 575.046 213.72 574.05 215.116L520.525 284.497C518.93 286.491 518.133 288.086 518.133 289.282C518.133 290.279 520.425 290.777 525.01 290.777Z" />
<path d="M724.294 379C720.705 379 715.423 378.701 708.446 378.103C701.468 377.704 694.192 377.305 686.617 376.907C679.042 376.707 672.264 376.608 666.284 376.608C662.496 376.608 658.808 376.707 655.22 376.907C651.632 377.106 647.844 377.305 643.857 377.505C639.87 377.903 635.484 378.103 630.7 378.103C628.707 378.103 627.212 377.804 626.215 377.206C625.019 376.807 624.421 375.91 624.421 374.514C624.819 371.324 628.208 369.43 634.587 368.832C640.568 368.433 645.153 367.436 648.342 365.841C651.731 364.246 654.323 361.954 656.117 358.963C657.911 355.773 659.605 351.985 661.2 347.599L705.156 210.331C706.751 205.546 706.452 202.057 704.259 199.863C702.266 197.471 699.276 195.677 695.289 194.48C691.501 193.284 687.315 192.188 682.73 191.191C680.138 190.593 678.444 189.795 677.646 188.798C676.849 187.801 676.55 186.605 676.749 185.21C676.749 183.814 677.547 182.817 679.141 182.219C680.936 181.621 682.929 181.322 685.122 181.322C692.697 181.322 699.973 181.621 706.95 182.219C714.127 182.618 720.805 182.817 726.985 182.817C730.972 182.817 734.56 182.717 737.75 182.518C741.138 182.119 744.627 181.82 748.215 181.621C752.003 181.222 756.488 181.023 761.671 181.023C780.41 181.023 796.557 184.312 810.113 190.892C823.868 197.471 834.433 206.941 841.809 219.302C849.384 231.464 853.172 246.218 853.172 263.563C853.172 278.915 849.982 293.469 843.603 307.226C837.224 320.982 828.253 333.344 816.691 344.309C805.129 355.075 791.474 363.549 775.725 369.729C759.977 375.91 742.833 379 724.294 379ZM725.191 369.43C738.746 369.43 751.205 366.34 762.568 360.159C774.13 353.779 784.197 345.306 792.769 334.739C801.341 323.973 808.019 312.011 812.804 298.852C817.588 285.494 819.98 271.937 819.98 258.18C819.98 242.629 817.588 229.969 812.804 220.2C808.219 210.43 801.541 203.253 792.769 198.667C784.197 193.882 774.031 191.49 762.269 191.49C755.093 191.49 749.81 191.988 746.421 192.985C743.232 193.982 740.939 195.577 739.544 197.77C738.348 199.963 737.152 202.754 735.955 206.144L695.588 336.534C692.996 344.708 692.697 351.187 694.691 355.972C696.684 360.757 700.372 364.246 705.754 366.44C711.137 368.433 717.615 369.43 725.191 369.43Z" />
<path d="M847.824 378.402C845.631 378.402 844.037 378.103 843.04 377.505C842.043 376.907 841.545 376.009 841.545 374.813C841.744 372.221 845.033 370.327 851.412 369.131C860.582 367.337 867.161 364.944 871.148 361.954C875.334 358.963 878.424 354.178 880.417 347.599L921.682 212.424C924.274 204.648 924.374 199.465 921.981 196.873C919.589 194.082 914.406 191.988 906.432 190.593C903.641 190.194 901.748 189.596 900.751 188.798C899.754 187.801 899.256 186.605 899.256 185.21C899.455 184.013 900.452 183.116 902.246 182.518C904.239 181.721 906.731 181.322 909.721 181.322C911.715 181.322 914.805 181.521 918.991 181.92C923.177 182.119 927.762 182.319 932.746 182.518C937.73 182.518 942.315 182.518 946.501 182.518H994.942C1005.11 182.518 1012.98 182.219 1018.57 181.621C1024.35 181.023 1028.43 180.524 1030.82 180.126C1033.42 179.527 1035.01 179.228 1035.61 179.228C1036.61 179.228 1037.5 179.727 1038.3 180.724C1039.3 181.721 1039.8 182.817 1039.8 184.013C1039.8 185.608 1039.1 188.2 1037.7 191.789C1036.51 195.178 1035.21 199.265 1033.82 204.05C1032.62 208.835 1031.72 213.919 1031.12 219.302C1030.92 221.296 1030.23 222.791 1029.03 223.788C1028.03 224.586 1027.04 224.984 1026.04 224.984C1025.04 224.984 1024.15 224.386 1023.35 223.19C1022.75 221.994 1022.45 220.299 1022.45 218.106C1022.45 208.337 1021.26 201.458 1018.86 197.471C1016.47 193.484 1011.39 191.49 1003.61 191.49H971.619C966.834 191.49 963.246 192.487 960.854 194.48C958.462 196.275 956.468 199.764 954.874 204.947L936.932 263.264C935.936 266.653 935.736 269.046 936.334 270.441C937.132 271.638 939.026 272.136 942.016 271.937L975.506 271.339C980.689 271.139 984.875 269.843 988.065 267.451C991.454 265.058 994.444 261.968 997.036 258.18C998.431 256.585 999.926 254.89 1001.52 253.096C1003.12 251.102 1004.71 250.105 1006.31 250.105C1007.9 250.105 1008.8 250.903 1009 252.498C1009.2 253.894 1008.8 255.688 1007.8 257.881C1006.01 261.669 1004.41 265.258 1003.02 268.647C1001.62 271.837 1000.42 275.027 999.428 278.217C998.232 281.606 997.135 285.095 996.139 288.684C995.142 292.273 994.145 296.26 993.148 300.646C992.75 302.64 992.152 304.335 991.354 305.73C990.756 307.126 989.959 307.824 988.962 307.824C987.367 307.824 986.171 306.827 985.374 304.833C984.776 302.84 984.477 301.145 984.477 299.749C984.676 293.569 983.779 289.083 981.785 286.292C979.991 283.5 977.4 282.105 974.011 282.105L941.119 281.507C938.128 281.507 935.537 282.005 933.344 283.002C931.151 283.999 929.457 286.391 928.261 290.179L913.31 343.711C910.718 353.082 910.32 359.561 912.114 363.15C914.107 366.539 918.493 368.234 925.271 368.234H964.143C968.928 368.234 973.313 367.436 977.3 365.841C981.287 364.246 984.875 362.352 988.065 360.159C991.454 357.767 994.643 354.677 997.634 350.888C1000.62 346.901 1003.61 342.614 1006.6 338.029C1007.4 336.833 1008.2 335.736 1009 334.739C1009.79 333.742 1010.79 333.244 1011.99 333.244C1012.98 333.244 1013.58 333.942 1013.78 335.337C1014.18 336.534 1014.38 337.929 1014.38 339.524C1014.38 341.518 1013.58 344.608 1011.99 348.795C1010.59 352.982 1008.9 357.368 1006.9 361.954C1004.91 366.34 1002.92 369.929 1000.92 372.72C999.926 374.514 998.63 375.91 997.036 376.907C995.64 377.903 993.846 378.402 991.653 378.402C985.673 378.402 979.094 378.302 971.918 378.103C964.741 378.103 957.365 378.003 949.79 377.804C942.414 377.604 934.939 377.405 927.364 377.206C919.988 377.006 912.712 376.907 905.535 376.907C898.558 376.707 892.079 376.608 886.099 376.608C881.514 376.608 877.128 376.707 872.942 376.907C868.955 377.305 864.968 377.604 860.981 377.804C856.994 378.203 852.609 378.402 847.824 378.402Z" />
<path d="M1061.98 378.402C1059.59 378.402 1057.8 378.103 1056.6 377.505C1055.4 376.907 1054.81 376.009 1054.81 374.813C1055 373.218 1056.1 372.022 1058.09 371.224C1060.09 370.228 1062.58 369.43 1065.57 368.832C1073.14 367.436 1079.32 364.745 1084.11 360.757C1088.89 356.77 1092.38 351.287 1094.57 344.309L1108.93 298.553C1110.52 293.967 1111.22 289.88 1111.02 286.292C1110.82 282.504 1110.02 278.317 1108.63 273.731L1091.58 212.424C1089.99 206.443 1087.8 201.758 1085.01 198.368C1082.41 194.779 1078.93 192.686 1074.54 192.088C1071.55 191.49 1069.36 190.593 1067.96 189.396C1066.57 188.2 1065.97 186.805 1066.17 185.21C1066.17 183.814 1067.16 182.917 1069.16 182.518C1071.35 181.92 1073.54 181.621 1075.74 181.621C1081.32 181.621 1087 181.82 1092.78 182.219C1098.76 182.618 1105.44 182.817 1112.82 182.817C1117.6 182.817 1122.18 182.618 1126.57 182.219C1131.15 181.82 1135.64 181.621 1140.03 181.621C1142.22 181.621 1143.91 181.92 1145.11 182.518C1146.31 183.116 1146.9 184.013 1146.9 185.21C1146.7 186.805 1145.61 188.1 1143.61 189.097C1141.62 190.094 1139.03 190.892 1135.84 191.49C1129.06 192.686 1124.78 194.58 1122.98 197.172C1121.39 199.564 1121.39 204.15 1122.98 210.929L1135.54 260.872C1136.54 264.46 1137.43 267.052 1138.23 268.647C1139.03 270.242 1139.83 271.04 1140.62 271.04C1141.62 271.04 1142.92 270.342 1144.51 268.946C1146.11 267.351 1148 265.258 1150.19 262.666C1156.77 255.09 1162.85 247.713 1168.43 240.536C1174.21 233.159 1180.59 225.184 1187.57 216.611C1193.75 209.035 1196.64 203.353 1196.24 199.564C1196.04 195.776 1192.65 193.184 1186.08 191.789C1184.08 191.39 1182.29 190.692 1180.69 189.695C1179.3 188.499 1178.7 187.104 1178.9 185.509C1178.9 184.312 1179.8 183.415 1181.59 182.817C1183.58 182.219 1185.78 181.92 1188.17 181.92C1192.35 181.92 1196.34 182.02 1200.13 182.219C1204.12 182.418 1208.5 182.518 1213.29 182.518C1219.07 182.518 1224.55 182.319 1229.73 181.92C1235.11 181.521 1239.8 181.322 1243.79 181.322C1245.98 181.322 1247.77 181.621 1249.17 182.219C1250.56 182.618 1251.16 183.615 1250.96 185.21C1250.96 186.605 1249.97 187.702 1247.97 188.499C1245.98 189.097 1243.69 189.895 1241.09 190.892C1237.11 192.088 1232.82 194.082 1228.24 196.873C1223.65 199.465 1219.27 202.356 1215.08 205.546C1210.89 208.736 1207.41 211.926 1204.61 215.116C1199.43 220.698 1193.75 226.978 1187.57 233.956C1181.39 240.735 1175.31 247.414 1169.33 253.993C1163.55 260.573 1158.47 266.255 1154.08 271.04C1149.89 275.625 1146.7 280.211 1144.51 284.796C1142.32 289.183 1140.32 294.267 1138.53 300.048L1125.07 344.309C1122.88 351.287 1122.88 356.77 1125.07 360.757C1127.47 364.545 1132.05 367.237 1138.83 368.832C1141.42 369.43 1143.32 370.128 1144.51 370.925C1145.71 371.723 1146.21 372.919 1146.01 374.514C1145.81 375.91 1144.81 376.907 1143.02 377.505C1141.22 378.103 1139.23 378.402 1137.04 378.402C1132.25 378.402 1127.87 378.203 1123.88 377.804C1120.09 377.604 1116.3 377.305 1112.52 376.907C1108.73 376.707 1104.74 376.608 1100.56 376.608C1096.17 376.608 1091.88 376.707 1087.7 376.907C1083.71 377.305 1079.62 377.604 1075.44 377.804C1071.25 378.203 1066.77 378.402 1061.98 378.402Z" />
<path fill-rule="evenodd" clip-rule="evenodd" d="M674.543 0.61218C692.226 -1.69645 709.851 2.91265 715.91 7.95501C723.247 14.0608 729.999 23.3328 725.607 33.1925C721.307 42.8432 695.403 48.7997 687.468 50.0786C677.448 51.6934 665.49 51.6934 651.915 51.6934C648.359 51.6934 624.808 50.9938 610.398 47.6321C608.256 47.1324 606.082 46.6253 603.879 46.1133C603.848 46.1336 603.818 46.1539 603.788 46.1742C589.844 55.5212 573.931 66.1879 557.724 81.3638C503.608 132.035 470.249 187.784 446.353 223.167C453.315 223.766 452.817 223.63 459.472 223.63C498.39 222.864 504.531 217.483 510.672 212.852C522.067 204.259 526.509 187.456 526.509 169.252C526.509 165.923 527.54 163.746 530.871 163.746C534.203 163.746 535.236 166.444 535.236 169.773C535.236 191.66 528.772 208.957 515.197 220.907C504.563 230.268 492.572 235.117 459.472 235.117C449.908 235.117 449.999 235.028 440.535 234.167C438.104 237.889 433.407 243.087 431.485 246.117C418.928 265.915 391.439 295.763 363.611 325.889C335.873 355.919 300.874 384.321 267.521 399.341C263.894 400.975 260.386 402.559 256.988 404.093C249.114 407.648 241.831 410.936 235.027 413.957C249.437 431.944 272.182 441.252 295.348 438.907C320.926 436.317 348.22 423.444 365.551 413.07C368.409 411.359 371.595 410.214 373.308 413.07C375.02 415.925 372.287 417.818 369.429 419.529C351.128 430.485 323.231 443.572 295.348 446.395C268.834 449.079 241.403 443.347 223.634 418.91C189.412 433.064 141.598 444.119 98.9272 440.091C76.5547 437.979 55.2057 431.683 37.9973 419.119C20.7297 406.512 8.03186 387.879 2.56415 361.921C-4.12971 340.504 -1.30223 292.71 55.7308 261.069C58.6436 259.453 62.3161 260.501 63.9336 263.411C65.5512 266.321 61.0906 267.109 58.1778 268.724C6.25955 297.528 3.5347 342.974 8.72667 359.165C13.0727 372.719 15.2504 387.583 45.1162 409.387C60.0449 420.287 79.0958 426.112 100.062 428.091C139.567 431.82 184.483 421.756 217.263 408.492C215.265 404.587 213.479 400.357 211.923 395.789C203.918 372.291 199.869 350.173 198.42 330.212C182.244 332.587 166.493 331.488 152.29 325.185C139.865 319.67 130.398 312.452 123.386 304.059C112.647 323.424 105.87 345.681 117.972 369.812C122.045 377.934 131.074 384.933 138.334 387.583C145.687 390.267 154.334 390.925 158.696 390.481C162.011 390.144 165.792 391.046 166.13 394.357C166.468 397.668 163.917 399.237 160.602 399.574C154.636 400.181 145.345 399.671 136.088 396.292C126.738 392.879 117.072 386.391 111.28 374.843C97.0443 346.458 100.469 320.116 113.205 297.55C114.061 296.034 114.959 294.535 115.895 293.054C109.243 280.868 106.659 267.385 106.41 254.109C105.9 226.826 115.259 199.266 121.26 182.841C138.811 134.809 219.861 37.2963 404.056 16.3764C482.318 7.48789 550.926 21.5373 601.511 33.1925C633.995 11.6843 657.496 2.8379 674.543 0.61218ZM617.915 37.0065C636.2 41.2614 659.993 40.2649 678.741 38.4519C708.8 35.5452 716.239 30.9231 718.496 25.8564C720.66 20.9987 717.85 17.3209 713.001 12.5641C698.394 0.612181 680.68 8.0934 675.832 9.70822C665.318 13.2101 644.375 20.6802 617.915 37.0065ZM587.775 42.4335C538.858 31.5072 476.639 15.8904 405.952 23.9186C225.548 44.4078 146.053 144.585 130.313 187.661C124.32 204.061 115.43 229.285 115.895 254.109C116.079 263.949 120.266 273.24 123.905 281.91C136.331 266.517 152.706 253.378 169.42 242.849C184.938 233.074 201.997 226.17 220.007 221.419C230.216 201.97 245.849 178.247 266.344 156.885C293.203 128.89 333.286 94.2353 376.54 89.48C397.596 87.1651 414.87 89.6641 423.082 98.846C431.43 108.181 437.137 114.21 427.607 145.353C420.537 168.459 398.099 195.996 380.741 216.404C385.329 216.819 385.081 216.909 389.603 217.346C395.098 217.877 400.532 218.417 405.897 218.95C412.525 219.608 419.045 220.255 425.442 220.863C449.034 185.375 491.598 126.76 549.473 72.5693C562.826 60.0658 575.992 50.4898 587.775 42.4335ZM417.991 232.255C413.554 231.823 409.073 231.378 404.558 230.93C399.228 230.401 393.85 229.867 388.442 229.344C380.889 228.614 380.328 229 372.661 228.354C355.641 245.4 330.62 269.751 304.141 288.425C276.522 307.902 239.681 320.735 210.351 327.871C211.635 347.233 215.489 368.845 223.345 391.905C224.825 396.249 226.513 400.175 228.376 403.719C235.621 400.512 243.42 396.991 251.962 393.135C255.373 391.595 258.903 390.001 262.563 388.353C293.685 374.337 323.943 345.202 351.329 315.554C378.627 286.002 402.612 256.465 414.812 237.231C415.804 235.667 416.864 234.007 417.991 232.255ZM212.349 315.231C238.826 308.286 264.914 292.776 291.292 274.174C313.489 258.52 333.819 241.134 349.62 226.021C337.359 225.162 325.048 224.535 312.809 224.306C283.331 223.753 260.004 224.674 233.681 230.93C230.772 232.23 226.247 239.981 224.954 243.21C222.11 250.316 212.036 290.588 212.349 315.231ZM218.813 235.782C205.609 240.015 187.315 245.827 175.856 253.045C158.297 264.105 141.821 277.761 130.313 293.338C136.225 301.484 144.834 308.686 157.189 314.169C169.087 319.45 183.41 320.512 198.42 318.138C197.567 280.557 210.214 252.868 217.197 239.012C217.461 238.386 218.533 236.426 218.813 235.782ZM243.377 217.346C268.911 213.642 288.27 211.068 314.483 211.56C330.484 211.86 345.116 213.52 360.958 214.784C361.33 214.401 361.699 214.02 362.063 213.642C380.239 193.174 404.982 161.685 415.002 140.693C418.521 129.193 421.84 108.915 417.911 104.521C413.844 99.974 406.519 96.616 386.236 98.846C345.512 105.305 303.057 140.158 277.314 166.991C260.802 184.202 252.947 200.78 243.377 217.346Z" />
<rect x="1186" y="365" width="15" height="15" />
<rect x="1201" y="365" width="14" height="15" />
<rect x="1231" y="365" width="13" height="15" />
<rect x="1244" y="365" width="15" height="15" />
<rect x="1202" y="351" width="14" height="14" />
<rect x="1216" y="337" width="15" height="14" />
<rect x="1216" y="323" width="15" height="14" />
<rect x="1231" y="308" width="13" height="15" />
<rect x="1231" y="294" width="13" height="14" />
<rect x="1244" y="280" width="15" height="14" />
<rect x="1316" y="308" width="15" height="15" />
<rect x="1244" y="265" width="15" height="15" />
<rect x="1259" y="251" width="14" height="14" />
<rect x="1259" y="236" width="14" height="15" />
<rect x="1273" y="223" width="15" height="13" />
<rect x="1273" y="208" width="15" height="15" />
<rect x="1288" y="194" width="14" height="14" />
<rect x="1302" y="194" width="14" height="14" />
<rect x="1288" y="179" width="14" height="15" />
<rect x="1302" y="179" width="14" height="15" />
<rect x="1302" y="223" width="14" height="13" />
<rect x="1316" y="223" width="15" height="13" />
<rect x="1302" y="208" width="14" height="15" />
<rect x="1316" y="208" width="15" height="15" />
<rect x="1302" y="251" width="14" height="14" />
<rect x="1316" y="251" width="15" height="14" />
<rect x="1302" y="236" width="14" height="15" />
<rect x="1316" y="236" width="15" height="15" />
<rect x="1331" y="280" width="14" height="14" />
<rect x="1345" y="280" width="14" height="14" />
<rect x="1331" y="265" width="14" height="15" />
<rect x="1345" y="265" width="14" height="15" />
<rect x="1331" y="308" width="14" height="15" />
<rect x="1345" y="308" width="14" height="15" />
<rect x="1331" y="294" width="14" height="14" />
<rect x="1345" y="294" width="14" height="14" />
<rect x="1345" y="337" width="14" height="14" />
<rect x="1359" y="337" width="14" height="14" />
<rect x="1345" y="351" width="14" height="14" />
<rect x="1359" y="351" width="14" height="14" />
<rect x="1345" y="323" width="14" height="14" />
<rect x="1359" y="323" width="14" height="14" />
<rect x="1216" y="365" width="15" height="15" />
<rect x="1215" y="365" width="14" height="15" />
<rect x="1316" y="365" width="15" height="15" />
<rect x="1373" y="365" width="15" height="15" />
<rect x="1345" y="365" width="14" height="15" />
<rect x="1359" y="365" width="14" height="15" />
<rect x="1331" y="365" width="14" height="15" />
<rect x="1244" y="308" width="15" height="15" />
<rect x="1302" y="308" width="14" height="15" />
<rect x="1273" y="308" width="15" height="15" />
<rect x="1288" y="308" width="14" height="15" />
<rect x="1259" y="308" width="14" height="15" />
</svg>
