<svg viewBox="0 0 1682 847" fill="none" xmlns="http://www.w3.org/2000/svg">
<path d="M553.761 541.441C551.647 541.441 550.11 541.153 549.15 540.576C547.997 540 547.324 538.943 547.132 537.406C547.132 535.677 547.997 534.428 549.726 533.66C551.455 532.699 553.665 531.931 556.354 531.354C561.158 530.01 565.865 528.376 570.476 526.455C575.087 524.342 579.409 521.94 583.444 519.25C587.671 516.369 591.321 513.199 594.395 509.74C608.036 494.562 620.812 479.769 632.724 465.359C644.636 450.95 656.26 436.637 667.595 422.419C678.93 408.01 690.458 393.6 702.177 379.191C704.867 375.925 707.173 372.851 709.094 369.969C711.015 367.087 712.648 364.782 713.993 363.053C715.338 361.323 716.395 360.459 717.163 360.459C721.582 360.459 724.944 359.882 727.25 358.73C729.747 357.577 732.341 355.752 735.031 353.254C737.913 350.564 740.122 348.643 741.659 347.49C743.388 346.146 744.829 345.473 745.982 345.473C747.327 345.473 748.192 346.53 748.576 348.643C748.96 350.564 748.672 353.542 747.711 357.577L718.316 505.706C716.587 513.967 716.683 520.019 718.604 523.861C720.718 527.704 724.752 530.394 730.708 531.931C733.59 532.699 735.703 533.468 737.048 534.236C738.585 534.813 739.354 535.869 739.354 537.406C739.354 538.751 738.585 539.712 737.048 540.288C735.511 540.865 733.302 541.153 730.42 541.153C727.538 541.153 723.888 540.961 719.469 540.576C715.05 540.384 710.439 540.192 705.636 540C701.025 539.808 696.606 539.712 692.379 539.712C688.921 539.712 685.078 539.712 680.852 539.712C676.817 539.712 672.782 539.808 668.748 540C664.905 540.192 661.639 540.288 658.949 540.288C654.915 540.288 652.705 539.039 652.321 536.542C652.321 535.005 653.089 533.756 654.626 532.795C656.163 531.643 658.085 530.874 660.39 530.49C666.154 529.529 670.765 528.376 674.223 527.032C677.682 525.495 680.371 523.381 682.293 520.691C684.406 517.81 686.039 513.871 687.192 508.876L696.126 474.293C696.702 471.988 696.222 470.258 694.685 469.106C693.34 467.953 691.418 467.377 688.921 467.377L652.609 467.953C649.919 467.953 647.71 468.337 645.981 469.106C644.444 469.874 643.003 471.219 641.658 473.14L615.433 507.435C611.59 512.43 609.381 516.465 608.805 519.539C608.42 522.613 609.093 524.918 610.822 526.455C612.743 527.992 615.241 529.241 618.315 530.202C620.236 530.778 621.869 531.643 623.214 532.795C624.751 533.756 625.519 535.005 625.519 536.542C625.519 537.887 624.655 538.847 622.926 539.424C621.389 540 619.468 540.288 617.162 540.288C613.512 540.288 609.477 540.192 605.058 540C600.831 539.808 596.124 539.712 590.937 539.712C584.981 539.712 578.545 540 571.628 540.576C564.712 541.153 558.756 541.441 553.761 541.441ZM661.831 457.002L694.108 456.714C696.029 456.714 697.47 456.233 698.431 455.273C699.584 454.312 700.448 452.583 701.025 450.085L714.858 386.972C715.242 385.051 715.434 383.61 715.434 382.649C715.434 381.497 714.954 380.92 713.993 380.92C713.417 380.92 712.648 381.112 711.688 381.497C710.919 381.881 710.055 382.745 709.094 384.09L657.508 450.95C655.971 452.871 655.203 454.408 655.203 455.561C655.203 456.522 657.412 457.002 661.831 457.002Z" />
<path d="M853.895 542.017C850.437 542.017 845.345 541.729 838.621 541.153C831.897 540.768 824.884 540.384 817.583 540C810.283 539.808 803.75 539.712 797.987 539.712C794.336 539.712 790.782 539.808 787.324 540C783.865 540.192 780.215 540.384 776.372 540.576C772.53 540.961 768.303 541.153 763.692 541.153C761.771 541.153 760.33 540.865 759.369 540.288C758.217 539.904 757.64 539.039 757.64 537.695C758.024 534.62 761.291 532.795 767.439 532.219C773.202 531.835 777.621 530.874 780.695 529.337C783.961 527.8 786.459 525.591 788.188 522.709C789.917 519.635 791.55 515.984 793.087 511.758L835.451 379.479C836.988 374.868 836.7 371.506 834.586 369.393C832.665 367.087 829.783 365.358 825.941 364.205C822.29 363.053 818.256 361.996 813.837 361.035C811.339 360.459 809.706 359.69 808.938 358.73C808.169 357.769 807.881 356.616 808.073 355.271C808.073 353.927 808.842 352.966 810.379 352.39C812.108 351.813 814.029 351.525 816.142 351.525C823.443 351.525 830.456 351.813 837.18 352.39C844.097 352.774 850.533 352.966 856.489 352.966C860.331 352.966 863.789 352.87 866.863 352.678C870.13 352.294 873.492 352.005 876.95 351.813C880.6 351.429 884.923 351.237 889.918 351.237C907.978 351.237 923.54 354.407 936.605 360.747C949.862 367.087 960.044 376.213 967.153 388.125C974.454 399.845 978.104 414.062 978.104 430.777C978.104 445.57 975.03 459.596 968.882 472.852C962.734 486.109 954.088 498.021 942.945 508.587C931.802 518.962 918.641 527.128 903.463 533.083C888.285 539.039 871.763 542.017 853.895 542.017ZM854.76 532.795C867.824 532.795 879.832 529.817 890.783 523.861C901.926 517.713 911.629 509.548 919.89 499.365C928.151 488.991 934.588 477.463 939.199 464.783C943.81 451.911 946.115 438.846 946.115 425.589C946.115 410.604 943.81 398.404 939.199 388.989C934.78 379.575 928.344 372.659 919.89 368.24C911.629 363.629 901.83 361.323 890.495 361.323C883.578 361.323 878.487 361.804 875.221 362.764C872.147 363.725 869.937 365.262 868.593 367.375C867.44 369.489 866.287 372.179 865.134 375.445L826.229 501.095C823.731 508.972 823.443 515.216 825.364 519.827C827.286 524.438 830.84 527.8 836.027 529.913C841.215 531.835 847.459 532.795 854.76 532.795Z" />
<path d="M972.95 541.441C970.837 541.441 969.3 541.153 968.339 540.576C967.379 540 966.898 539.135 966.898 537.983C967.091 535.485 970.261 533.66 976.409 532.507C985.246 530.778 991.587 528.472 995.429 525.591C999.464 522.709 1002.44 518.098 1004.36 511.758L1044.13 381.497C1046.63 374.004 1046.73 369.008 1044.42 366.511C1042.12 363.821 1037.12 361.804 1029.44 360.459C1026.75 360.075 1024.92 359.498 1023.96 358.73C1023 357.769 1022.52 356.616 1022.52 355.271C1022.71 354.119 1023.67 353.254 1025.4 352.678C1027.32 351.909 1029.72 351.525 1032.61 351.525C1034.53 351.525 1037.5 351.717 1041.54 352.101C1045.57 352.294 1049.99 352.486 1054.8 352.678C1059.6 352.678 1064.02 352.678 1068.05 352.678H1114.74C1124.54 352.678 1132.13 352.39 1137.51 351.813C1143.08 351.237 1147.02 350.757 1149.32 350.372C1151.82 349.796 1153.36 349.508 1153.93 349.508C1154.89 349.508 1155.76 349.988 1156.53 350.949C1157.49 351.909 1157.97 352.966 1157.97 354.119C1157.97 355.656 1157.29 358.153 1155.95 361.612C1154.8 364.878 1153.55 368.816 1152.2 373.427C1151.05 378.038 1150.19 382.938 1149.61 388.125C1149.42 390.046 1148.74 391.487 1147.59 392.448C1146.63 393.216 1145.67 393.6 1144.71 393.6C1143.75 393.6 1142.89 393.024 1142.12 391.871C1141.54 390.719 1141.25 389.086 1141.25 386.972C1141.25 377.558 1140.1 370.93 1137.79 367.087C1135.49 363.245 1130.59 361.323 1123.1 361.323H1092.26C1087.65 361.323 1084.19 362.284 1081.89 364.205C1079.58 365.934 1077.66 369.297 1076.12 374.292L1058.83 430.489C1057.87 433.755 1057.68 436.06 1058.25 437.405C1059.02 438.558 1060.85 439.038 1063.73 438.846L1096.01 438.27C1101 438.078 1105.04 436.829 1108.11 434.523C1111.38 432.218 1114.26 429.24 1116.76 425.589C1118.1 424.052 1119.54 422.419 1121.08 420.69C1122.62 418.769 1124.15 417.808 1125.69 417.808C1127.23 417.808 1128.09 418.577 1128.28 420.114C1128.48 421.459 1128.09 423.188 1127.13 425.301C1125.4 428.952 1123.86 432.41 1122.52 435.676C1121.18 438.75 1120.02 441.824 1119.06 444.898C1117.91 448.164 1116.85 451.526 1115.89 454.985C1114.93 458.443 1113.97 462.285 1113.01 466.512C1112.63 468.433 1112.05 470.066 1111.28 471.411C1110.7 472.756 1109.94 473.429 1108.98 473.429C1107.44 473.429 1106.29 472.468 1105.52 470.547C1104.94 468.625 1104.65 466.992 1104.65 465.647C1104.84 459.692 1103.98 455.369 1102.06 452.679C1100.33 449.989 1097.83 448.644 1094.57 448.644L1062.87 448.068C1059.98 448.068 1057.49 448.548 1055.37 449.509C1053.26 450.47 1051.63 452.775 1050.47 456.425L1036.06 508.011C1033.57 517.041 1033.18 523.285 1034.91 526.743C1036.83 530.009 1041.06 531.643 1047.59 531.643H1085.06C1089.67 531.643 1093.89 530.874 1097.74 529.337C1101.58 527.8 1105.04 525.975 1108.11 523.861C1111.38 521.556 1114.45 518.578 1117.33 514.928C1120.21 511.085 1123.1 506.954 1125.98 502.536C1126.75 501.383 1127.52 500.326 1128.28 499.365C1129.05 498.405 1130.01 497.925 1131.17 497.925C1132.13 497.925 1132.7 498.597 1132.89 499.942C1133.28 501.095 1133.47 502.439 1133.47 503.977C1133.47 505.898 1132.7 508.876 1131.17 512.91C1129.82 516.945 1128.19 521.172 1126.27 525.591C1124.35 529.817 1122.42 533.276 1120.5 535.965C1119.54 537.695 1118.29 539.039 1116.76 540C1115.41 540.961 1113.68 541.441 1111.57 541.441C1105.81 541.441 1099.46 541.345 1092.55 541.153C1085.63 541.153 1078.52 541.057 1071.22 540.865C1064.11 540.672 1056.91 540.48 1049.61 540.288C1042.5 540.096 1035.49 540 1028.57 540C1021.85 539.808 1015.6 539.712 1009.84 539.712C1005.42 539.712 1001.19 539.808 997.158 540C993.316 540.384 989.473 540.672 985.631 540.865C981.788 541.249 977.561 541.441 972.95 541.441Z" />
<path d="M1179.35 541.441C1177.04 541.441 1175.31 541.153 1174.16 540.576C1173.01 540 1172.43 539.135 1172.43 537.983C1172.62 536.446 1173.68 535.293 1175.6 534.524C1177.52 533.564 1179.93 532.795 1182.81 532.219C1190.11 530.874 1196.06 528.28 1200.68 524.438C1205.29 520.595 1208.65 515.312 1210.76 508.587L1224.59 464.495C1226.13 460.076 1226.8 456.137 1226.61 452.679C1226.42 449.029 1225.65 444.994 1224.31 440.575L1207.88 381.497C1206.34 375.733 1204.23 371.218 1201.54 367.952C1199.04 364.493 1195.68 362.476 1191.45 361.9C1188.57 361.323 1186.46 360.459 1185.11 359.306C1183.77 358.153 1183.19 356.809 1183.38 355.271C1183.38 353.927 1184.34 353.062 1186.27 352.678C1188.38 352.101 1190.49 351.813 1192.61 351.813C1197.99 351.813 1203.46 352.005 1209.03 352.39C1214.8 352.774 1221.23 352.966 1228.34 352.966C1232.95 352.966 1237.37 352.774 1241.6 352.39C1246.02 352.005 1250.34 351.813 1254.57 351.813C1256.68 351.813 1258.31 352.101 1259.47 352.678C1260.62 353.254 1261.19 354.119 1261.19 355.271C1261 356.809 1259.95 358.057 1258.02 359.018C1256.1 359.979 1253.61 360.747 1250.53 361.323C1244 362.476 1239.87 364.301 1238.14 366.799C1236.6 369.105 1236.6 373.523 1238.14 380.056L1250.24 428.183C1251.2 431.641 1252.07 434.139 1252.84 435.676C1253.61 437.213 1254.37 437.981 1255.14 437.981C1256.1 437.981 1257.35 437.309 1258.89 435.964C1260.43 434.427 1262.25 432.41 1264.36 429.912C1270.7 422.611 1276.56 415.503 1281.94 408.586C1287.52 401.478 1293.66 393.793 1300.39 385.531C1306.34 378.23 1309.13 372.755 1308.75 369.104C1308.55 365.454 1305.29 362.956 1298.95 361.612C1297.03 361.227 1295.3 360.555 1293.76 359.594C1292.42 358.442 1291.84 357.097 1292.03 355.56C1292.03 354.407 1292.9 353.542 1294.62 352.966C1296.55 352.39 1298.66 352.101 1300.96 352.101C1305 352.101 1308.84 352.197 1312.49 352.39C1316.33 352.582 1320.56 352.678 1325.17 352.678C1330.74 352.678 1336.03 352.486 1341.02 352.101C1346.21 351.717 1350.73 351.525 1354.57 351.525C1356.68 351.525 1358.41 351.813 1359.76 352.39C1361.1 352.774 1361.68 353.734 1361.48 355.271C1361.48 356.616 1360.52 357.673 1358.6 358.442C1356.68 359.018 1354.47 359.786 1351.97 360.747C1348.13 361.9 1344 363.821 1339.58 366.511C1335.16 369.008 1330.94 371.794 1326.9 374.868C1322.87 377.942 1319.5 381.016 1316.82 384.09C1311.82 389.47 1306.34 395.522 1300.39 402.246C1294.43 408.778 1288.57 415.215 1282.81 421.555C1277.24 427.895 1272.34 433.37 1268.11 437.981C1264.08 442.4 1261 446.819 1258.89 451.238C1256.78 455.465 1254.85 460.364 1253.13 465.936L1240.16 508.587C1238.04 515.312 1238.04 520.595 1240.16 524.438C1242.46 528.088 1246.88 530.682 1253.41 532.219C1255.91 532.795 1257.74 533.468 1258.89 534.236C1260.04 535.005 1260.52 536.158 1260.33 537.695C1260.14 539.039 1259.18 540 1257.45 540.576C1255.72 541.153 1253.8 541.441 1251.68 541.441C1247.07 541.441 1242.85 541.249 1239 540.865C1235.35 540.672 1231.7 540.384 1228.05 540C1224.4 539.808 1220.56 539.712 1216.53 539.712C1212.3 539.712 1208.17 539.808 1204.13 540C1200.29 540.384 1196.35 540.672 1192.32 540.865C1188.28 541.249 1183.96 541.441 1179.35 541.441Z" />
<path fill-rule="evenodd" clip-rule="evenodd" d="M943.618 0.857326C968.354 -2.37579 993.011 4.07902 1001.49 11.1406C1011.75 19.6915 1021.2 32.6763 1015.05 46.4844C1009.04 59.9997 972.799 68.3415 961.698 70.1324C947.682 72.3939 930.953 72.3939 911.963 72.3939C906.99 72.3939 874.044 71.4141 853.885 66.7062C850.889 66.0064 847.848 65.2963 844.766 64.5793C844.723 64.6077 844.681 64.6362 844.639 64.6646C825.132 77.7546 802.872 92.6927 780.199 113.946C704.497 184.908 657.831 262.981 624.403 312.534C634.143 313.373 633.446 313.182 642.755 313.182C697.198 312.109 705.788 304.573 714.379 298.088C730.32 286.053 736.534 262.522 736.534 237.028C736.534 232.367 737.975 229.318 742.636 229.318C747.297 229.318 748.741 233.096 748.741 237.758C748.741 268.41 739.698 292.633 720.709 309.368C705.832 322.478 689.059 329.269 642.755 329.269C629.377 329.269 629.504 329.144 616.265 327.939C612.864 333.15 606.293 340.431 603.605 344.674C586.038 372.4 547.584 414.2 508.656 456.39C469.852 498.446 420.893 538.221 374.235 559.257C369.162 561.544 364.254 563.762 359.5 565.911C348.486 570.889 338.297 575.494 328.78 579.726C348.937 604.914 380.755 617.95 413.162 614.666C448.943 611.039 487.125 593.012 511.369 578.482C515.367 576.086 519.824 574.484 522.22 578.482C524.616 582.481 520.792 585.132 516.794 587.528C491.192 602.871 452.168 621.199 413.162 625.152C376.072 628.911 337.698 620.884 312.842 586.662C264.968 606.483 198.082 621.965 138.389 616.324C107.092 613.367 77.2273 604.549 53.1543 586.954C28.9988 569.299 11.2358 543.204 3.58698 506.851C-5.77705 476.858 -1.82169 409.925 77.9618 365.613C82.0365 363.35 87.174 364.819 89.4367 368.894C91.6995 372.969 85.4596 374.071 81.3849 376.335C8.75648 416.673 4.94469 480.317 12.2077 502.992C18.2874 521.973 21.3338 542.789 63.1131 573.326C83.9967 588.589 110.647 596.747 139.977 599.519C195.24 604.741 258.074 590.648 303.93 572.072C301.134 566.603 298.636 560.679 296.459 554.282C285.261 521.374 279.597 490.399 277.569 462.444C254.942 465.77 232.907 464.232 213.039 455.404C195.657 447.681 182.414 437.573 172.604 425.819C157.582 452.938 148.101 484.108 165.031 517.902C170.729 529.277 183.36 539.078 193.515 542.789C203.802 546.548 215.897 547.47 222 546.849C226.637 546.377 231.927 547.639 232.399 552.276C232.871 556.914 229.303 559.11 224.666 559.583C216.32 560.433 203.323 559.718 190.374 554.986C177.293 550.206 163.772 541.12 155.67 524.948C135.755 485.196 140.545 448.305 158.363 416.704C159.56 414.58 160.816 412.481 162.126 410.407C152.82 393.341 149.205 374.458 148.858 355.867C148.143 317.658 161.235 279.061 169.631 256.06C194.183 188.792 307.564 52.2315 565.234 22.9344C674.714 10.4864 770.691 30.1619 841.453 46.4844C886.896 16.3632 919.771 3.97434 943.618 0.857326ZM864.402 51.8257C889.98 57.7844 923.264 56.3889 949.491 53.8499C991.54 49.7793 1001.95 43.3061 1005.1 36.2105C1008.13 29.4076 1004.2 24.257 997.417 17.5954C976.983 0.857328 952.204 11.3344 945.422 13.5958C930.714 18.5001 901.416 28.9616 864.402 51.8257ZM822.239 59.4259C753.808 44.1242 666.77 22.2536 567.886 33.4967C315.519 62.1909 204.313 202.484 182.295 262.809C173.912 285.777 161.475 321.101 162.126 355.867C162.383 369.646 168.24 382.658 173.331 394.8C190.713 373.243 213.621 354.842 237.002 340.097C258.709 326.409 282.574 316.739 307.767 310.086C322.05 282.849 343.918 249.626 372.589 219.709C410.161 180.503 466.234 131.972 526.741 125.312C556.197 122.07 580.362 125.57 591.849 138.429C603.528 151.501 611.51 159.945 598.179 203.559C588.288 235.918 556.9 274.483 532.619 303.063C539.037 303.644 538.69 303.77 545.016 304.382C552.703 305.126 560.305 305.881 567.809 306.627C577.08 307.549 586.203 308.456 595.15 309.306C628.154 259.608 687.696 177.521 768.657 101.63C787.337 84.119 805.755 70.7084 822.239 59.4259ZM584.727 325.261C578.52 324.656 572.252 324.033 565.936 323.405C558.48 322.664 550.957 321.916 543.391 321.184C532.826 320.162 532.041 320.703 521.316 319.798C497.505 343.669 462.504 377.773 425.462 403.924C386.827 431.201 335.29 449.172 294.261 459.165C296.056 486.281 301.448 516.548 312.437 548.843C314.507 554.926 316.869 560.424 319.476 565.388C329.61 560.896 340.52 555.966 352.47 550.565C357.241 548.408 362.179 546.176 367.299 543.868C410.836 524.239 453.164 483.438 491.474 441.917C529.661 400.531 563.214 359.165 580.281 332.229C581.668 330.04 583.15 327.714 584.727 325.261ZM297.055 441.465C334.094 431.738 370.588 410.017 407.488 383.966C438.54 362.043 466.979 337.696 489.083 316.53C471.932 315.328 454.709 314.45 437.589 314.128C396.352 313.354 363.719 314.645 326.896 323.405C322.827 325.225 316.497 336.08 314.688 340.603C310.71 350.554 296.617 406.953 297.055 441.465ZM306.098 330.201C287.627 336.129 262.035 344.267 246.004 354.376C221.442 369.866 198.394 388.99 182.295 410.804C190.565 422.213 202.609 432.298 219.892 439.977C236.536 447.373 256.571 448.861 277.569 445.535C276.376 392.905 294.068 354.129 303.837 334.724C304.206 333.847 305.706 331.103 306.098 330.201ZM340.46 304.382C376.179 299.195 403.26 295.59 439.931 296.279C462.314 296.699 482.783 299.024 504.944 300.794C505.465 300.257 505.98 299.724 506.489 299.195C531.916 270.53 566.529 226.432 580.546 197.033C585.468 180.928 590.112 152.53 584.615 146.376C578.927 140.008 568.68 135.306 540.305 138.429C483.336 147.474 423.947 196.284 387.935 233.862C364.836 257.965 353.848 281.182 340.46 304.382Z" />
<path d="M1313 531H1328V546H1313V531Z" />
<path d="M1328 531H1342V546H1328V531Z" />
<path d="M1358 531H1371V546H1358V531Z" />
<path d="M1371 531H1386V546H1371V531Z" />
<path d="M1329 517H1343V531H1329V517Z" />
<path d="M1343 503H1358V517H1343V503Z" />
<path d="M1343 489H1358V503H1343V489Z" />
<path d="M1358 474H1371V489H1358V474Z" />
<path d="M1358 460H1371V474H1358V460Z" />
<path d="M1371 446H1386V460H1371V446Z" />
<path d="M1443 474H1458V489H1443V474Z" />
<path d="M1371 431H1386V446H1371V431Z" />
<path d="M1386 417H1400V431H1386V417Z" />
<path d="M1386 402H1400V417H1386V402Z" />
<path d="M1400 389H1415V402H1400V389Z" />
<path d="M1400 374H1415V389H1400V374Z" />
<path d="M1415 360H1429V374H1415V360Z" />
<path d="M1429 360H1443V374H1429V360Z" />
<path d="M1415 345H1429V360H1415V345Z" />
<path d="M1429 345H1443V360H1429V345Z" />
<path d="M1429 389H1443V402H1429V389Z" />
<path d="M1443 389H1458V402H1443V389Z" />
<path d="M1429 374H1443V389H1429V374Z" />
<path d="M1443 374H1458V389H1443V374Z" />
<path d="M1429 417H1443V431H1429V417Z" />
<path d="M1443 417H1458V431H1443V417Z" />
<path d="M1429 402H1443V417H1429V402Z" />
<path d="M1443 402H1458V417H1443V402Z" />
<path d="M1458 446H1472V460H1458V446Z" />
<path d="M1472 446H1486V460H1472V446Z" />
<path d="M1458 431H1472V446H1458V431Z" />
<path d="M1472 431H1486V446H1472V431Z" />
<path d="M1458 474H1472V489H1458V474Z" />
<path d="M1472 474H1486V489H1472V474Z" />
<path d="M1458 460H1472V474H1458V460Z" />
<path d="M1472 460H1486V474H1472V460Z" />
<path d="M1472 503H1486V517H1472V503Z" />
<path d="M1486 503H1500V517H1486V503Z" />
<path d="M1472 517H1486V531H1472V517Z" />
<path d="M1486 517H1500V531H1486V517Z" />
<path d="M1472 489H1486V503H1472V489Z" />
<path d="M1486 489H1500V503H1486V489Z" />
<path d="M1343 531H1358V546H1343V531Z" />
<path d="M1342 531H1356V546H1342V531Z" />
<path d="M1443 531H1458V546H1443V531Z" />
<path d="M1500 531H1515V546H1500V531Z" />
<path d="M1472 531H1486V546H1472V531Z" />
<path d="M1486 531H1500V546H1486V531Z" />
<path d="M1458 531H1472V546H1458V531Z" />
<path d="M1371 474H1386V489H1371V474Z" />
<path d="M1429 474H1443V489H1429V474Z" />
<path d="M1400 474H1415V489H1400V474Z" />
<path d="M1415 474H1429V489H1415V474Z" />
<path d="M1386 474H1400V489H1386V474Z" />
<path d="M1527.27 337H1516.62V277.48H1494.44V268.36H1549.45V277.48H1527.27V337Z" />
<path d="M1568.03 337H1557.66V268.36H1571.58L1591.36 322.312H1591.55L1611.42 268.36H1625.34V337H1614.97V283.72H1614.78L1595.87 337H1587.13L1568.22 283.72H1568.03V337Z" />
<path d="M1327.61 678.106C1334.12 666.075 1354.67 625.908 1361.09 608.05L1350.09 592.94C1350.59 595.688 1353.72 606.677 1349.6 619.039C1346.85 625.908 1326 670.465 1306.76 692.443C1291.36 710.025 1286.59 712.321 1289.34 717.816C1290.97 721.06 1305.19 729.201 1324.86 716.567C1344.1 704.205 1352.35 701.457 1359.22 702.831C1366.09 704.205 1368.84 709.699 1366.09 722.062C1361.53 742.574 1337.23 755.029 1319.36 760.524C1287.2 770.412 1304.29 753.488 1287.75 744.04C1282.25 740.377 1264.38 739.37 1258.88 753.656C1253.38 767.941 1275.38 775.634 1275.38 775.634C1287.75 781.128 1309.32 776.589 1330.36 767.392C1353.72 757.175 1365.64 742.209 1370.22 731.677C1373.42 726.183 1378.46 711.073 1372.97 698.71C1365.02 680.853 1343.13 693.014 1331.73 698.71C1322.93 703.106 1319.36 704.205 1316.61 701.457C1314.78 699.626 1320.91 690.485 1327.61 678.106Z" />
<path d="M1383.41 581H1340.59V586.522C1359.37 586.522 1346.11 619.652 1358.54 608.608L1394.46 723.183C1403.3 751.896 1387.55 769.658 1382.03 772.879V777.02H1458V768.737C1448.05 768.737 1440.04 752.172 1437.28 743.89L1383.41 581Z" />
<rect x="1060.4" y="588" width="12.6" height="12.6" />
<rect x="1060.4" y="588" width="12.6" height="12.6" />
<rect x="1060.4" y="764.4" width="12.6" height="12.6" />
<rect x="1060.4" y="764.4" width="12.6" height="12.6" />
<rect x="905" y="588" width="12.6" height="12.6" />
<rect x="917.601" y="588" width="12.6" height="12.6" />
<rect x="917.601" y="588" width="12.6" height="12.6" />
<rect x="930.2" y="588" width="12.6" height="12.6" />
<rect x="930.2" y="588" width="12.6" height="12.6" />
<rect x="917.601" y="600.6" width="12.6" height="12.6" />
<rect x="917.601" y="600.6" width="12.6" height="12.6" />
<rect x="930.2" y="600.6" width="12.6" height="12.6" />
<rect x="930.2" y="600.6" width="12.6" height="12.6" />
<rect x="917.601" y="613.2" width="12.6" height="12.6" />
<rect x="917.601" y="613.2" width="12.6" height="12.6" />
<rect x="930.2" y="613.2" width="12.6" height="12.6" />
<rect x="930.2" y="613.2" width="12.6" height="12.6" />
<rect x="917.601" y="625.8" width="12.6" height="12.6" />
<rect x="917.601" y="625.8" width="12.6" height="12.6" />
<rect x="930.2" y="625.8" width="12.6" height="12.6" />
<rect x="930.2" y="625.8" width="12.6" height="12.6" />
<rect x="917.601" y="638.4" width="12.6" height="12.6" />
<rect x="917.601" y="638.4" width="12.6" height="12.6" />
<rect x="930.2" y="638.4" width="12.6" height="12.6" />
<rect x="930.2" y="638.4" width="12.6" height="12.6" />
<rect x="917.601" y="651" width="12.6" height="12.6" />
<rect x="917.601" y="651" width="12.6" height="12.6" />
<rect x="930.2" y="651" width="12.6" height="12.6" />
<rect x="930.2" y="651" width="12.6" height="12.6" />
<rect x="917.601" y="663.6" width="12.6" height="12.6" />
<rect x="917.601" y="663.6" width="12.6" height="12.6" />
<rect x="930.2" y="663.6" width="12.6" height="12.6" />
<rect x="930.2" y="663.6" width="12.6" height="12.6" />
<rect x="917.601" y="676.2" width="12.6" height="12.6" />
<rect x="917.601" y="676.2" width="12.6" height="12.6" />
<rect x="930.2" y="676.2" width="12.6" height="12.6" />
<rect x="930.2" y="676.2" width="12.6" height="12.6" />
<rect x="917.601" y="688.8" width="12.6" height="12.6" />
<rect x="917.601" y="688.8" width="12.6" height="12.6" />
<rect x="930.2" y="688.8" width="12.6" height="12.6" />
<rect x="930.2" y="688.8" width="12.6" height="12.6" />
<rect x="955.4" y="688.8" width="12.6" height="12.6" />
<rect x="955.4" y="688.8" width="12.6" height="12.6" />
<rect x="968" y="688.8" width="12.6" height="12.6" />
<rect x="968" y="688.8" width="12.6" height="12.6" />
<rect x="955.4" y="676.2" width="12.6" height="12.6" />
<rect x="968" y="663.6" width="12.6" height="12.6" />
<rect x="980.6" y="651" width="12.6" height="12.6" />
<rect x="993.2" y="638.4" width="12.6" height="12.6" />
<rect x="1005.8" y="625.8" width="12.6" height="12.6" />
<rect x="1005.8" y="613.2" width="12.6" height="12.6" />
<rect x="1018.4" y="600.6" width="12.6" height="12.6" />
<rect x="1018.4" y="613.2" width="12.6" height="12.6" />
<rect x="1031" y="600.6" width="12.6" height="12.6" />
<rect x="917.601" y="701.4" width="12.6" height="12.6" />
<rect x="917.601" y="701.4" width="12.6" height="12.6" />
<rect x="930.2" y="701.4" width="12.6" height="12.6" />
<rect x="930.2" y="701.4" width="12.6" height="12.6" />
<rect x="917.601" y="714" width="12.6" height="12.6" />
<rect x="917.601" y="714" width="12.6" height="12.6" />
<rect x="930.2" y="714" width="12.6" height="12.6" />
<rect x="930.2" y="714" width="12.6" height="12.6" />
<rect x="917.601" y="726.6" width="12.6" height="12.6" />
<rect x="917.601" y="726.6" width="12.6" height="12.6" />
<rect x="930.2" y="726.6" width="12.6" height="12.6" />
<rect x="930.2" y="726.6" width="12.6" height="12.6" />
<rect x="942.801" y="588" width="12.6" height="12.6" />
<rect x="942.801" y="588" width="12.6" height="12.6" />
<rect x="955.4" y="588" width="12.6" height="12.6" />
<rect x="955.4" y="588" width="12.6" height="12.6" />
<rect x="997.4" y="588" width="12.6" height="12.6" />
<rect x="1010" y="588" width="12.6" height="12.6" />
<rect x="1022.6" y="588" width="12.6" height="12.6" />
<rect x="1022.6" y="588" width="12.6" height="12.6" />
<rect x="1035.2" y="588" width="12.6" height="12.6" />
<rect x="1035.2" y="588" width="12.6" height="12.6" />
<rect x="1047.8" y="588" width="12.6" height="12.6" />
<rect x="1047.8" y="588" width="12.6" height="12.6" />
<rect x="942.801" y="688.8" width="12.6" height="12.6" />
<rect x="968" y="701.4" width="12.6" height="12.6" />
<rect x="968" y="701.4" width="12.6" height="12.6" />
<rect x="980.6" y="701.4" width="12.6" height="12.6" />
<rect x="980.6" y="701.4" width="12.6" height="12.6" />
<rect x="955.4" y="701.4" width="12.6" height="12.6" />
<rect x="980.6" y="714" width="12.6" height="12.6" />
<rect x="980.6" y="714" width="12.6" height="12.6" />
<rect x="993.2" y="714" width="12.6" height="12.6" />
<rect x="993.2" y="714" width="12.6" height="12.6" />
<rect x="968" y="714" width="12.6" height="12.6" />
<rect x="993.2" y="726.6" width="12.6" height="12.6" />
<rect x="993.2" y="726.6" width="12.6" height="12.6" />
<rect x="1005.8" y="726.6" width="12.6" height="12.6" />
<rect x="1005.8" y="726.6" width="12.6" height="12.6" />
<rect x="980.6" y="726.6" width="12.6" height="12.6" />
<rect x="1005.8" y="739.2" width="12.6" height="12.6" />
<rect x="1005.8" y="739.2" width="12.6" height="12.6" />
<rect x="1018.4" y="739.2" width="12.6" height="12.6" />
<rect x="1018.4" y="739.2" width="12.6" height="12.6" />
<rect x="993.2" y="739.2" width="12.6" height="12.6" />
<rect x="1022.6" y="751.8" width="12.6" height="12.6" />
<rect x="1022.6" y="751.8" width="12.6" height="12.6" />
<rect x="1035.2" y="751.8" width="12.6" height="12.6" />
<rect x="1035.2" y="751.8" width="12.6" height="12.6" />
<rect x="1010" y="751.8" width="12.6" height="12.6" />
<rect x="1022.6" y="764.4" width="12.6" height="12.6" />
<rect x="1035.2" y="764.4" width="12.6" height="12.6" />
<rect x="1035.2" y="764.4" width="12.6" height="12.6" />
<rect x="1047.8" y="764.4" width="12.6" height="12.6" />
<rect x="1047.8" y="764.4" width="12.6" height="12.6" />
<rect x="968" y="777.183" width="12.6" height="12.6" transform="rotate(-180 968 777.183)" />
<rect x="955.399" y="777.122" width="12.6" height="12.6" transform="rotate(-180 955.399 777.122)" />
<rect x="942.8" y="777.06" width="12.6" height="12.6" transform="rotate(-180 942.8 777.06)" />
<rect x="942.8" y="777.06" width="12.6" height="12.6" transform="rotate(-180 942.8 777.06)" />
<rect x="930.199" y="776.999" width="12.6" height="12.6" transform="rotate(-180 930.199 776.999)" />
<rect x="930.199" y="776.999" width="12.6" height="12.6" transform="rotate(-180 930.199 776.999)" />
<rect x="942.861" y="764.461" width="12.6" height="12.6" transform="rotate(-180 942.861 764.461)" />
<rect x="942.861" y="764.461" width="12.6" height="12.6" transform="rotate(-180 942.861 764.461)" />
<rect x="930.261" y="764.4" width="12.6" height="12.6" transform="rotate(-180 930.261 764.4)" />
<rect x="930.261" y="764.4" width="12.6" height="12.6" transform="rotate(-180 930.261 764.4)" />
<rect x="942.922" y="751.861" width="12.6" height="12.6" transform="rotate(-180 942.922 751.861)" />
<rect x="942.922" y="751.861" width="12.6" height="12.6" transform="rotate(-180 942.922 751.861)" />
<rect x="930.322" y="751.8" width="12.6" height="12.6" transform="rotate(-180 930.322 751.8)" />
<rect x="930.322" y="751.8" width="12.6" height="12.6" transform="rotate(-180 930.322 751.8)" />
<rect x="917.6" y="776.938" width="12.6" height="12.6" transform="rotate(-180 917.6 776.938)" />
<rect x="917.6" y="776.938" width="12.6" height="12.6" transform="rotate(-180 917.6 776.938)" />
<path d="M1497.63 777H1478.22V586.81H1505.08L1569.19 750.932H1569.72L1634.09 586.81H1660.96V777H1641.54V614.208H1641.01L1578.23 777H1560.68L1498.17 614.208H1497.63V777Z" />
<path d="M1119.63 778H1100.22V587.81H1174.7C1215.13 587.81 1237.21 606.696 1237.21 641.542C1237.21 666.812 1222.58 684.102 1201.83 689.422V689.954C1245.45 698.732 1230.29 773.212 1240.66 776.404V778H1219.92C1211.14 770.02 1228.43 698.998 1177.62 698.998H1119.63V778ZM1119.63 681.974H1169.91C1200.23 681.974 1217.79 668.408 1217.79 641.808C1217.79 617.602 1203.96 604.834 1171.24 604.834H1119.63V681.974Z" />
<path d="M877.365 583.762C874.234 591.633 872.414 599.546 871.906 607.502C871.398 615.373 871.018 622.144 870.764 627.814C870.51 633.485 870.298 639.367 870.129 645.461C869.875 659.68 869.748 672.629 869.748 684.309C869.748 732.212 871.525 761.581 875.08 772.414C875.673 774.276 876.434 776.138 877.365 778H833.566C836.19 772.245 837.756 767.04 838.264 762.385C838.771 757.73 839.237 752.186 839.66 745.754C840.676 732.466 841.184 717.147 841.184 699.797C841.184 682.447 841.141 670.598 841.057 664.25C840.972 657.818 840.845 651.555 840.676 645.461C840.083 615.754 838.306 596.88 835.344 588.84L833.566 583.762H877.365Z" />
</svg>
