<svg  viewBox="0 0 69 66" fill="none" xmlns="http://www.w3.org/2000/svg">
<path d="M0.341625 66L25.6856 0.143995H43.3496L68.6936 66H53.2376L48.5336 53.04H19.8296L15.1256 66H0.341625ZM23.9576 41.52H44.4056L38.5496 25.296C38.2936 24.592 37.9736 23.76 37.5896 22.8C37.2696 21.776 36.9176 20.656 36.5336 19.44C36.1496 18.224 35.7656 17.04 35.3816 15.888C35.0616 14.672 34.7416 13.584 34.4216 12.624H33.8456C33.5256 13.84 33.1096 15.28 32.5976 16.944C32.0856 18.544 31.5736 20.112 31.0616 21.648C30.5496 23.12 30.1336 24.336 29.8136 25.296L23.9576 41.52Z" fill="white"/>
</svg>
