<svg viewBox="0 0 60 66" fill="none" xmlns="http://www.w3.org/2000/svg">
<path d="M0.311625 66V0.143995H27.1916C34.0396 0.143995 39.8636 1.328 44.6636 3.696C49.4636 6.064 53.1436 9.68 55.7036 14.544C58.3276 19.344 59.6396 25.52 59.6396 33.072C59.6396 40.56 58.3276 46.736 55.7036 51.6C53.1436 56.464 49.4636 60.08 44.6636 62.448C39.8636 64.816 34.0396 66 27.1916 66H0.311625ZM14.6156 54.192H27.0956C29.9756 54.192 32.5356 53.776 34.7756 52.944C37.0156 52.112 38.8716 50.896 40.3436 49.296C41.8156 47.632 42.9356 45.584 43.7036 43.152C44.4716 40.656 44.8556 37.776 44.8556 34.512V31.632C44.8556 28.368 44.4716 25.52 43.7036 23.088C42.9356 20.592 41.8156 18.544 40.3436 16.944C38.8716 15.28 37.0156 14.032 34.7756 13.2C32.5356 12.304 29.9756 11.856 27.0956 11.856H14.6156V54.192Z" fill="white"/>
</svg>
