<svg viewBox="0 0 98 98" fill="none" xmlns="http://www.w3.org/2000/svg">
<circle cx="9" cy="9" r="9" fill="current"/>
<ellipse cx="28.5" cy="9" rx="9.5" ry="9" fill="current"/>
<ellipse cx="49" cy="9" rx="10" ry="9" fill="current"/>
<ellipse cx="69.5" cy="9" rx="9.5" ry="9" fill="current"/>
<circle cx="89" cy="9" r="9" fill="current"/>
<ellipse cx="9" cy="28.5" rx="9" ry="9.5" fill="current"/>
<circle cx="28.5" cy="28.5" r="9.5" fill="current"/>
<ellipse cx="49" cy="28.5" rx="10" ry="9.5" fill="current"/>
<circle cx="69.5" cy="28.5" r="9.5" fill="current"/>
<ellipse cx="89" cy="28.5" rx="9" ry="9.5" fill="current"/>
<ellipse cx="9" cy="49" rx="9" ry="10" fill="current"/>
<ellipse cx="28.5" cy="49" rx="9.5" ry="10" fill="current"/>
<circle cx="49" cy="49" r="10" fill="current"/>
<ellipse cx="69.5" cy="49" rx="9.5" ry="10" fill="current"/>
<ellipse cx="89" cy="49" rx="9" ry="10" fill="current"/>
<ellipse cx="9" cy="69.5" rx="9" ry="9.5" fill="current"/>
<circle cx="28.5" cy="69.5" r="9.5" fill="current"/>
<ellipse cx="49" cy="69.5" rx="10" ry="9.5" fill="current"/>
<circle cx="69.5" cy="69.5" r="9.5" fill="current"/>
<ellipse cx="89" cy="69.5" rx="9" ry="9.5" fill="current"/>
<circle cx="9" cy="89" r="9" fill="current"/>
<ellipse cx="28.5" cy="89" rx="9.5" ry="9" fill="current"/>
<ellipse cx="49" cy="89" rx="10" ry="9" fill="current"/>
<ellipse cx="69.5" cy="89" rx="9.5" ry="9" fill="current"/>
<circle cx="89" cy="89" r="9" fill="current"/>
</svg>
