<svg  viewBox="0 0 94 93" fill="none" xmlns="http://www.w3.org/2000/svg">
<path d="M3.64341 3.5H43.492V42.8671C33.2254 42.0454 23.5469 37.6429 16.2203 30.3924C12.1836 26.3976 8.98392 21.6573 6.80209 16.443C5.07268 12.31 4.00931 7.94277 3.64341 3.5ZM43.3478 50.0074C42.9811 54.4488 41.9171 58.8145 40.1875 62.946C38.0052 68.1588 34.8054 72.8977 30.7689 76.8911C23.4424 84.1392 13.765 88.5396 3.5 89.3601V50.0074H43.3478ZM50.4924 89.5L50.4921 50.1462C60.76 50.9636 70.4416 55.3629 77.7712 62.6117L77.7713 62.6117C81.8094 66.6051 85.0107 71.3446 87.194 76.5582C88.9245 80.6906 89.989 85.0575 90.3558 89.5H50.4924ZM90.5 43.0074H50.6352C51.001 38.5634 52.0649 34.1948 53.795 30.0605C55.9774 24.8452 59.1782 20.104 63.2162 16.1088C67.2555 12.1132 72.0527 8.94186 77.3349 6.77772C81.5369 5.05617 85.9795 3.9991 90.5 3.63899V43.0074Z" stroke="current" stroke-width="6"/>
</svg>
