<svg  viewBox="0 0 102 102" fill="none" xmlns="http://www.w3.org/2000/svg">
<path fill-rule="evenodd" clip-rule="evenodd" d="M51 0C22.8335 0 0 22.8335 0 51C0 79.1665 22.8335 102 51 102C79.1665 102 102 79.1665 102 51C102 22.8335 79.1665 0 51 0ZM81.1674 85.7944L70.2544 72.1016C74.0637 65.6156 76.2257 57.8941 77.0493 50.8932H70.2544C69.5337 56.3498 68.0924 61.8063 65.7244 66.5421L49.5608 46.2603C58.9295 40.5979 64.9008 35.7591 64.9008 27.0081C64.9008 18.36 59.0325 10.8444 48.3253 10.8444C37.1034 10.8444 31.7499 18.9777 31.7499 26.9051C31.7499 33.5971 35.4562 38.8477 40.6038 45.2308C32.1617 49.9667 23.1018 56.0409 23.1018 67.6746C23.1018 78.7936 31.3381 87.1328 45.0308 87.1328C54.3996 87.1328 61.4004 83.2206 66.4451 77.4552L73.1371 85.7944H81.1674ZM38.5448 26.9051C38.5448 21.8604 41.8393 17.1246 48.3253 17.1246C54.5025 17.1246 58.1059 21.5515 58.1059 27.4199C58.1059 33.9059 53.473 37.8182 46.1633 42.0393C41.9422 36.8916 38.5448 32.0528 38.5448 26.9051ZM62.224 72.2046C58.2089 77.2493 52.5464 80.5438 45.1338 80.5438C35.765 80.5438 29.8967 75.0873 29.8967 67.1598C29.8967 58.7177 36.4857 54.0848 44.1043 49.5548L62.224 72.2046Z" fill="current"/>
</svg>
