<svg width="20" height="20" viewBox="0 0 94 93" fill="none" xmlns="http://www.w3.org/2000/svg">
<path d="M37.7499 15.1125C35.7679 8.1375 38.4573 0 46.9995 0C55.5427 0 58.2321 8.1375 56.2501 15.1125C54.786 20.2633 50.8004 32.3872 48.8156 38.3764C48.5886 39.0619 49.037 39.7817 49.7095 40.0588C50.3821 40.336 51.1924 40.1295 51.5214 39.4869C54.3987 33.8632 60.2455 22.5004 62.8921 17.8346C66.4759 11.5157 74.1933 7.6432 80.2337 13.6194C86.2746 19.596 82.3604 27.2313 75.9736 30.777C71.2572 33.3949 59.7727 39.18 54.089 42.0267C53.439 42.3522 53.2303 43.1539 53.5104 43.8193C53.7906 44.4847 54.5181 44.9283 55.2104 44.7037C61.2645 42.74 73.5188 38.7963 78.725 37.3483C85.775 35.3874 94 38.0482 94 46.4995C94 54.9518 85.775 57.6126 78.725 55.6517C73.5188 54.2032 61.2645 50.26 55.2104 48.2963C54.5181 48.0717 53.7906 48.5153 53.5104 49.1807C53.2303 49.8461 53.439 50.6478 54.089 50.9733C59.7727 53.82 71.2572 59.6051 75.9736 62.223C82.3604 65.7687 86.2746 73.404 80.2342 79.3806C74.1933 85.3568 66.4754 81.4843 62.8921 75.1654C60.246 70.4991 54.3987 59.1368 51.5214 53.5136C51.1924 52.8705 50.3821 52.664 49.7095 52.9412C49.037 53.2183 48.5886 53.9381 48.8156 54.6231C50.8004 60.6128 54.7865 72.7367 56.2501 77.8875C58.2321 84.8625 55.5427 93 47 93C38.4573 93 35.7679 84.8625 37.7499 77.8875C39.2135 72.7367 43.1996 60.6128 45.1844 54.6231C45.4114 53.9381 44.9635 53.2183 44.2905 52.9412C43.6184 52.664 42.8076 52.8705 42.4786 53.5136C39.6013 59.1368 33.7545 70.4991 31.1079 75.1654C27.5246 81.4843 19.8067 85.3568 13.7663 79.3806C7.72539 73.404 11.6396 65.7687 18.0264 62.223C22.7428 59.6051 34.2273 53.82 39.911 50.9733C40.561 50.6478 40.7697 49.8461 40.4891 49.1807C40.2094 48.5153 39.4819 48.0717 38.7896 48.2963C32.736 50.26 20.4812 54.2037 15.275 55.6517C8.225 57.6126 0 54.9518 0 46.5C0 38.0482 8.225 35.3874 15.275 37.3483C20.4812 38.7963 32.7355 42.74 38.7891 44.7037C39.4819 44.9283 40.2094 44.4852 40.4896 43.8193C40.7697 43.1543 40.5615 42.3522 39.9115 42.0267C34.2273 39.18 22.7424 33.3949 18.0264 30.777C11.6396 27.2313 7.72539 19.596 13.7658 13.6194C19.8067 7.6432 27.5246 11.5157 31.1079 17.8346C33.754 22.5009 39.6013 33.8632 42.4786 39.4864C42.8076 40.1295 43.6179 40.336 44.2905 40.0584C44.963 39.7817 45.4114 39.0619 45.1844 38.3769C43.1996 32.3872 39.2135 20.2633 37.7499 15.1125Z" stroke="current" stroke-width="7" />
</svg>
