<svg viewBox="0 0 178 178" fill="none" xmlns="http://www.w3.org/2000/svg">
<path d="M13.8261 167.57C50.0082 140.275 68.0983 126.627 89 126.627C109.902 126.627 127.993 140.275 164.175 167.57L178 178L167.57 164.175C140.275 127.993 126.627 109.902 126.627 89C126.627 68.0992 140.275 50.0082 167.57 13.8261L178 0L164.175 10.4308C127.993 37.7253 109.902 51.3726 89 51.3726C68.0992 51.3726 50.0082 37.7253 13.8261 10.4299L0 0L10.4308 13.8261C37.7244 50.0091 51.3717 68.0983 51.3717 89C51.3717 109.902 37.7244 127.993 10.4299 164.174L0 178L13.8261 167.57Z" fill="current"/>
</svg>
