<svg  viewBox="0 0 107 107" fill="none" xmlns="http://www.w3.org/2000/svg">
<path fill-rule="evenodd" clip-rule="evenodd" d="M107 53.5C107 83.0472 83.0472 107 53.5 107C23.9528 107 0 83.0472 0 53.5C0 23.9528 23.9528 0 53.5 0C83.0472 0 107 23.9528 107 53.5ZM53.5 100.43C79.4186 100.43 100.43 79.4186 100.43 53.5C100.43 27.5814 79.4186 6.57018 53.5 6.57018C27.5814 6.57018 6.57018 27.5814 6.57018 53.5C6.57018 79.4186 27.5814 100.43 53.5 100.43Z" fill="current"/>
<path d="M71.92 74.8061L81.8691 87.2895H74.548L68.4472 79.6868C63.848 84.943 57.4656 88.5097 48.9243 88.5097C36.441 88.5097 28.9322 80.907 28.9322 70.7702C28.9322 60.164 37.1919 54.6263 44.8884 50.3088C40.1954 44.4895 36.8164 39.7026 36.8164 33.6017C36.8164 26.3746 41.6972 18.9596 51.9279 18.9596C61.6893 18.9596 67.0393 25.8114 67.0393 33.6956C67.0393 41.6737 61.5954 46.0851 53.0542 51.2474L67.7901 69.7377C69.9489 65.4202 71.2629 60.4456 71.92 55.4711H78.1147C77.3638 61.8535 75.3928 68.893 71.92 74.8061ZM51.9279 24.6851C46.0147 24.6851 43.0112 29.0026 43.0112 33.6017C43.0112 38.2947 46.1086 42.7061 49.9568 47.3991C56.6208 43.5509 60.8445 39.9842 60.8445 34.071C60.8445 28.7211 57.5594 24.6851 51.9279 24.6851ZM49.0182 82.5026C55.7761 82.5026 60.9384 79.4991 64.5989 74.9L48.0796 54.2509C41.134 58.3807 35.127 62.6044 35.127 70.3009C35.127 77.5281 40.477 82.5026 49.0182 82.5026Z" fill="current"/>
</svg>
