<svg  viewBox="0 0 100 100" fill="none" xmlns="http://www.w3.org/2000/svg">
<circle cx="50" cy="50" r="47" stroke="current" stroke-width="6"/>
<ellipse cx="32.5" cy="34.5" rx="7.5" ry="10.5"  stroke="current" stroke-width="6"/>
<ellipse cx="65.5" cy="34.5" rx="7.5" ry="10.5" stroke="current" stroke-width="6"/>
<path d="M14 50C14 54.7276 14.9182 59.4089 16.7023 63.7766C18.4863 68.1443 21.1012 72.1129 24.3977 75.4558C27.6942 78.7988 31.6077 81.4505 35.9147 83.2597C40.2218 85.0688 44.8381 86 49.5 86C54.1619 86 58.7782 85.0688 63.0853 83.2597C67.3923 81.4505 71.3058 78.7988 74.6023 75.4558C77.8988 72.1129 80.5137 68.1443 82.2977 63.7766C84.0818 59.4089 85 54.7276 85 50" stroke="current" stroke-width="6"/>
</svg>
