<svg  viewBox="0 0 400 400" fill="none" xmlns="http://www.w3.org/2000/svg">
<path d="M183.76 187.786C166.494 179.586 136.22 172.594 99.678 170.918C42.046 168.274 0 185.014 0 202.404C0 213.714 18.88 223.63 47.226 229.182C36.384 224.62 30.404 218.812 30.404 211.898C30.404 196.566 81.958 166.952 158.63 182.816C167.778 184.708 176.134 186.344 183.76 187.786ZM216.24 212.214C233.506 220.414 263.782 227.406 300.322 229.082C357.954 231.726 400 214.986 400 197.596C400 186.286 381.122 176.37 352.774 170.816C363.616 175.38 369.596 181.188 369.596 188.104C369.596 203.434 318.042 233.048 241.37 217.184C233.008 215.456 224.631 213.799 216.24 212.214ZM212.214 183.76C220.414 166.494 227.406 136.22 229.082 99.678C231.726 42.046 214.986 0 197.596 0C186.286 0 176.37 18.88 170.816 47.226C175.38 36.384 181.188 30.404 188.104 30.404C203.434 30.404 233.048 81.958 217.184 158.63C215.456 166.992 213.799 175.369 212.214 183.76ZM187.786 216.24C179.586 233.506 172.594 263.782 170.918 300.322C168.274 357.954 185.014 400 202.404 400C213.714 400 223.63 381.122 229.182 352.774C224.62 363.616 218.812 369.596 211.898 369.596C196.566 369.596 166.952 318.042 182.816 241.37C184.545 233.008 186.202 224.631 187.786 216.24ZM197.152 179.88C190.744 161.872 174.278 135.52 149.626 108.498C110.744 65.878 69.174 47.982 56.878 60.278C48.882 68.276 55.218 88.638 71.338 112.608C66.898 101.714 66.776 93.38 71.664 88.49C82.504 77.65 139.9 93.164 182.898 158.596C187.588 165.732 192.339 172.827 197.152 179.88ZM202.846 220.12C209.256 238.128 225.72 264.48 250.374 291.502C289.256 334.124 330.824 352.018 343.12 339.722C351.118 331.724 344.78 311.362 328.662 287.392C333.102 298.286 333.224 306.62 328.334 311.51C317.494 322.35 260.098 306.836 217.102 241.404C212.411 234.269 207.659 227.174 202.846 220.12ZM220.12 197.154C238.126 190.744 264.478 174.278 291.502 149.626C334.124 110.744 352.018 69.174 339.722 56.88C331.724 48.88 311.362 55.22 287.392 71.338C298.284 66.898 306.62 66.776 311.51 71.666C322.35 82.506 306.836 139.9 241.404 182.898C234.268 187.588 227.173 192.341 220.12 197.154ZM179.88 202.846C161.872 209.256 135.52 225.722 108.496 250.374C65.876 289.256 47.982 330.824 60.276 343.12C68.276 351.118 88.636 344.782 112.606 328.662C101.714 333.104 93.38 333.224 88.49 328.334C77.65 317.494 93.164 260.1 158.596 217.102C165.731 212.412 172.828 207.66 179.88 202.846Z" fill="none"/>
<path d="M180.813 195.421C161.723 194.451 131.077 199.581 96.6752 212.015C42.4212 231.627 9.98124 263.183 16.6352 279.249C20.9632 289.697 42.2012 291.635 70.5152 285.917C58.7512 285.851 51.0032 282.773 48.3572 276.383C42.4912 262.219 78.7912 215.131 155.695 200.447C164.869 198.693 173.215 197.007 180.813 195.421ZM220.169 205.561C239.259 206.531 269.905 201.403 304.307 188.967C358.561 169.355 391.001 137.799 384.347 121.733C380.019 111.285 358.783 109.347 330.469 115.065C342.231 115.133 349.979 118.209 352.625 124.599C358.491 138.763 322.193 185.851 245.289 200.537C236.902 202.14 228.528 203.814 220.169 205.561ZM205.561 180.811C206.531 161.723 201.403 131.077 188.967 96.6752C169.357 42.4212 137.799 9.98124 121.733 16.6352C111.285 20.9632 109.347 42.2012 115.065 70.5152C115.133 58.7512 118.209 51.0032 124.599 48.3572C138.763 42.4912 185.851 78.7912 200.537 155.693C202.14 164.081 203.814 172.453 205.561 180.811ZM195.421 220.169C194.453 239.259 199.581 269.905 212.015 304.307C231.627 358.561 263.183 391.001 279.249 384.347C289.697 380.019 291.635 358.783 285.917 330.469C285.851 342.231 282.773 349.979 276.385 352.625C262.219 358.491 215.131 322.193 200.445 245.289C198.843 236.902 197.169 228.528 195.421 220.169ZM190.161 182.991C177.349 168.809 152.053 150.763 118.935 135.231C66.7012 110.733 21.4492 110.111 14.7952 126.175C10.4672 136.625 24.1152 153.011 48.1772 168.987C39.9072 160.623 36.6052 152.969 39.2512 146.581C45.1192 132.417 104.081 124.787 168.847 168.781C176.573 174.031 183.667 178.741 190.161 182.991ZM210.821 217.991C223.633 232.173 248.929 250.219 282.047 265.751C334.279 290.249 379.531 290.873 386.187 274.807C390.515 264.359 376.867 247.971 352.803 231.995C361.075 240.359 364.375 248.013 361.729 254.401C355.863 268.565 296.899 276.195 232.135 232.199C225.072 227.402 217.967 222.666 210.821 217.991ZM217.991 190.161C232.173 177.349 250.219 152.053 265.751 118.935C290.247 66.7032 290.873 21.4492 274.807 14.7952C264.357 10.4672 247.971 24.1152 231.993 48.1792C240.359 39.9072 248.013 36.6052 254.401 39.2532C268.565 45.1192 276.195 104.081 232.199 168.847C227.401 175.91 222.665 183.015 217.991 190.161ZM182.991 210.821C168.807 223.633 150.763 248.929 135.231 282.047C110.733 334.279 110.109 379.533 126.175 386.187C136.623 390.515 153.011 376.869 168.987 352.803C160.623 361.075 152.969 364.377 146.581 361.729C132.417 355.863 124.785 296.899 168.781 232.135C173.579 225.072 178.316 217.967 182.991 210.821Z" fill="none"/>
</svg>
